<?xml version="1.0" encoding="UTF-8"?>
<svg xmlns="http://www.w3.org/2000/svg"
     xmlns:xlink="http://www.w3.org/1999/xlink"
     xmlns:gadfly="http://www.gadflyjl.org/ns"
     version="1.2"
     width="203.2mm" height="125.58mm" viewBox="0 0 203.2 125.58"
     stroke="none"
     fill="#000000"
     stroke-width="0.3"
     font-size="3.88"
>
<g class="plotroot xscalable yscalable" id="fig-0085b070f5c349f6afae386ebf3c5040-element-1">
  <g font-size="3.88" font-family="'PT Sans','Helvetica Neue','Helvetica',sans-serif" fill="#564A55" stroke="#000000" stroke-opacity="0.000" id="fig-0085b070f5c349f6afae386ebf3c5040-element-2">
    <text x="108.92" y="113.97" text-anchor="middle" dy="0.6em">Price</text>
  </g>
  <g class="guide xlabels" font-size="2.82" font-family="'PT Sans Caption','Helvetica Neue','Helvetica',sans-serif" fill="#6C606B" id="fig-0085b070f5c349f6afae386ebf3c5040-element-3">
    <text x="21.63" y="107.3" text-anchor="middle" dy="0.6em">40</text>
    <text x="65.27" y="107.3" text-anchor="middle" dy="0.6em">60</text>
    <text x="108.92" y="107.3" text-anchor="middle" dy="0.6em">80</text>
    <text x="152.56" y="107.3" text-anchor="middle" dy="0.6em">100</text>
    <text x="196.2" y="107.3" text-anchor="middle" dy="0.6em">120</text>
  </g>
  <g clip-path="url(#fig-0085b070f5c349f6afae386ebf3c5040-element-5)" id="fig-0085b070f5c349f6afae386ebf3c5040-element-4">
    <g pointer-events="visible" opacity="1" fill="#000000" fill-opacity="0.000" stroke="#000000" stroke-opacity="0.000" class="guide background" id="fig-0085b070f5c349f6afae386ebf3c5040-element-6">
      <rect x="19.63" y="5" width="178.57" height="101.3"/>
    </g>
    <g class="guide ygridlines xfixed" stroke-dasharray="0.5,0.5" stroke-width="0.2" stroke="#D0D0E0" id="fig-0085b070f5c349f6afae386ebf3c5040-element-7">
      <path fill="none" d="M19.63,104.3 L 198.2 104.3"/>
      <path fill="none" d="M19.63,79.97 L 198.2 79.97"/>
      <path fill="none" d="M19.63,55.65 L 198.2 55.65"/>
      <path fill="none" d="M19.63,31.32 L 198.2 31.32"/>
      <path fill="none" d="M19.63,7 L 198.2 7"/>
    </g>
    <g class="guide xgridlines yfixed" stroke-dasharray="0.5,0.5" stroke-width="0.2" stroke="#D0D0E0" id="fig-0085b070f5c349f6afae386ebf3c5040-element-8">
      <path fill="none" d="M21.63,5 L 21.63 106.3"/>
      <path fill="none" d="M65.27,5 L 65.27 106.3"/>
      <path fill="none" d="M108.92,5 L 108.92 106.3"/>
      <path fill="none" d="M152.56,5 L 152.56 106.3"/>
      <path fill="none" d="M196.2,5 L 196.2 106.3"/>
    </g>
    <g class="plotpanel" id="fig-0085b070f5c349f6afae386ebf3c5040-element-9">
      <g stroke-width="0.3" fill="#000000" fill-opacity="0.000" class="geometry" stroke="#00BFFF" id="fig-0085b070f5c349f6afae386ebf3c5040-element-10">
        <path fill="none" d="M34.01,20.46 L 34.17 20.56 34.33 20.66 34.48 20.75 34.64 20.85 34.8 20.94 34.96 21.04 35.12 21.14 35.28 21.23 35.43 21.33 35.59 21.42 35.75 21.52 35.91 21.61 36.07 21.71 36.23 21.81 36.39 21.9 36.54 22 36.7 22.09 36.86 22.19 37.02 22.28 37.18 22.38 37.34 22.48 37.49 22.57 37.65 22.67 37.81 22.76 37.97 22.86 38.13 22.95 38.29 23.05 38.44 23.15 38.6 23.24 38.76 23.34 38.92 23.43 39.08 23.53 39.24 23.62 39.39 23.72 39.55 23.82 39.71 23.91 39.87 24.01 40.03 24.1 40.19 24.2 40.35 24.3 40.5 24.39 40.66 24.49 40.82 24.58 40.98 24.68 41.14 24.77 41.3 24.87 41.45 24.97 41.61 25.06 41.77 25.16 41.93 25.25 42.09 25.35 42.25 25.44 42.4 25.54 42.56 25.64 42.72 25.73 42.88 25.83 43.04 25.92 43.2 26.02 43.35 26.11 43.51 26.21 43.67 26.31 43.83 26.4 43.99 26.5 44.15 26.59 44.3 26.69 44.46 26.79 44.62 26.88 44.78 26.98 44.94 27.07 45.1 27.17 45.26 27.26 45.41 27.36 45.57 27.46 45.73 27.55 45.89 27.65 46.05 27.74 46.21 27.84 46.36 27.93 46.52 28.03 46.68 28.13 46.84 28.22 47 28.32 47.16 28.41 47.31 28.51 47.47 28.6 47.63 28.7 47.79 28.8 47.95 28.89 48.11 28.99 48.26 29.08 48.42 29.18 48.58 29.28 48.74 29.37 48.9 29.47 49.06 29.56 49.22 29.66 49.37 29.75 49.53 29.85 49.69 29.95 49.85 30.04 50.01 30.14 50.17 30.23 50.32 30.33 50.48 30.42 50.64 30.52 50.8 30.62 50.96 30.71 51.12 30.81 51.27 30.9 51.43 31 51.59 31.09 51.75 31.19 51.91 31.29 52.07 31.38 52.22 31.48 52.38 31.57 52.54 31.67 52.7 31.76 52.86 31.86 53.02 31.96 53.18 32.05 53.33 32.15 53.49 32.24 53.65 32.34 53.81 32.44 53.97 32.53 54.13 32.63 54.28 32.72 54.44 32.82 54.6 32.91 54.76 33.01 54.92 33.11 55.08 33.2 55.23 33.3 55.39 33.39 55.55 33.49 55.71 33.58 55.87 33.68 56.03 33.78 56.18 33.87 56.34 33.97 56.5 34.06 56.66 34.16 56.82 34.25 56.98 34.35 57.13 34.45 57.29 34.54 57.45 34.64 57.61 34.73 57.77 34.83 57.93 34.93 58.09 35.02 58.24 35.12 58.4 35.21 58.56 35.31 58.72 35.4 58.88 35.5 59.04 35.6 59.19 35.69 59.35 35.79 59.51 35.88 59.67 35.98 59.83 36.07 59.99 36.17 60.14 36.27 60.3 36.36 60.46 36.46 60.62 36.55 60.78 36.65 60.94 36.74 61.09 36.84 61.25 36.94 61.41 37.03 61.57 37.13 61.73 37.22 61.89 37.32 62.05 37.42 62.2 37.51 62.36 37.61 62.52 37.7 62.68 37.8 62.84 37.89 63 37.99 63.15 38.09 63.31 38.18 63.47 38.28 63.63 38.37 63.79 38.47 63.95 38.56 64.1 38.66 64.26 38.76 64.42 38.85 64.58 38.95 64.74 39.04 64.9 39.14 65.05 39.23 65.21 39.33 65.37 39.43 65.53 39.52 65.69 39.62 65.85 39.71 66.01 39.81 66.16 39.9 66.32 40 66.48 40.1 66.64 40.19 66.8 40.29 66.96 40.38 67.11 40.48 67.27 40.58 67.43 40.67 67.59 40.77 67.75 40.86 67.91 40.96 68.06 41.05 68.22 41.15 68.38 41.25 68.54 41.34 68.7 41.44 68.86 41.53 69.01 41.63 69.17 41.72 69.33 41.82 69.49 41.92 69.65 42.01 69.81 42.11 69.97 42.2 70.12 42.3 70.28 42.39 70.44 42.49 70.6 42.59 70.76 42.68 70.92 42.78 71.07 42.87 71.23 42.97 71.39 43.07 71.55 43.16 71.71 43.26 71.87 43.35 72.02 43.45 72.18 43.54 72.34 43.64 72.5 43.74 72.66 43.83 72.82 43.93 72.97 44.02 73.13 44.12 73.29 44.21 73.45 44.31 73.61 44.41 73.77 44.5 73.92 44.6 74.08 44.69 74.24 44.79 74.4 44.88 74.56 44.98 74.72 45.08 74.88 45.17 75.03 45.27 75.19 45.36 75.35 45.46 75.51 45.55 75.67 45.65 75.83 45.75 75.98 45.84 76.14 45.94 76.3 46.03 76.46 46.13 76.62 46.23 76.78 46.32 76.93 46.42 77.09 46.51 77.25 46.61 77.41 46.7 77.57 46.8 77.73 46.9 77.88 46.99 78.04 47.09 78.2 47.18 78.36 47.28 78.52 47.37 78.68 47.47 78.84 47.57 78.99 47.66 79.15 47.76 79.31 47.85 79.47 47.95 79.63 48.04 79.79 48.14 79.94 48.24 80.1 48.33 80.26 48.43 80.42 48.52 80.58 48.62 80.74 48.72 80.89 48.81 81.05 48.91 81.21 49 81.37 49.1 81.53 49.19 81.69 49.29 81.84 49.39 82 49.48 82.16 49.58 82.32 49.67 82.48 49.77 82.64 49.86 82.8 49.96 82.95 50.06 83.11 50.15 83.27 50.25 83.43 50.34 83.59 50.44 83.75 50.53 83.9 50.63 84.06 50.73 84.22 50.82 84.38 50.92 84.54 51.01 84.7 51.11 84.85 51.21 85.01 51.3 85.17 51.4 85.33 51.49 85.49 51.59 85.65 51.68 85.8 51.78 85.96 51.88 86.12 51.97 86.28 52.07 86.44 52.16 86.6 52.26 86.76 52.35 86.91 52.45 87.07 52.55 87.23 52.64 87.39 52.74 87.55 52.83 87.71 52.93 87.86 53.02 88.02 53.12 88.18 53.22 88.34 53.31 88.5 53.41 88.66 53.5 88.81 53.6 88.97 53.69 89.13 53.79 89.29 53.89 89.45 53.98 89.61 54.08 89.76 54.17 89.92 54.27 90.08 54.37 90.24 54.46 90.4 54.56 90.56 54.65 90.71 54.75 90.87 54.84 91.03 54.94 91.19 55.04 91.35 55.13 91.51 55.23 91.67 55.32 91.82 55.42 91.98 55.51 92.14 55.61 92.3 55.71 92.46 55.8 92.62 55.9 92.77 55.99 92.93 56.09 93.09 56.18 93.25 56.28 93.41 56.38 93.57 56.47 93.72 56.57 93.88 56.66 94.04 56.76 94.2 56.86 94.36 56.95 94.52 57.05 94.67 57.14 94.83 57.24 94.99 57.33 95.15 57.43 95.31 57.53 95.47 57.62 95.63 57.72 95.78 57.81 95.94 57.91 96.1 58 96.26 58.1 96.42 58.2 96.58 58.29 96.73 58.39 96.89 58.48 97.05 58.58 97.21 58.67 97.37 58.77 97.53 58.87 97.68 58.96 97.84 59.06 98 59.15 98.16 59.25 98.32 59.35 98.48 59.44 98.63 59.54 98.79 59.63 98.95 59.73 99.11 59.82 99.27 59.92 99.43 60.02 99.59 60.11 99.74 60.21 99.9 60.3 100.06 60.4 100.22 60.49 100.38 60.59 100.54 60.69 100.69 60.78 100.85 60.88 101.01 60.97 101.17 61.07 101.33 61.16 101.49 61.26 101.64 61.36 101.8 61.45 101.96 61.55 102.12 61.64 102.28 61.74 102.44 61.83 102.59 61.93 102.75 62.03 102.91 62.12 103.07 62.22 103.23 62.31 103.39 62.41 103.54 62.51 103.7 62.6 103.86 62.7 104.02 62.79 104.18 62.89 104.34 62.98 104.5 63.08 104.65 63.18 104.81 63.27 104.97 63.37 105.13 63.46 105.29 63.56 105.45 63.65 105.6 63.75 105.76 63.85 105.92 63.94 106.08 64.04 106.24 64.13 106.4 64.23 106.55 64.32 106.71 64.42 106.87 64.52 107.03 64.61 107.19 64.71 107.35 64.8 107.5 64.9 107.66 65 107.82 65.09 107.98 65.19 108.14 65.28 108.3 65.38 108.46 65.47 108.61 65.57 108.77 65.67 108.93 65.76 109.09 65.86 109.25 65.95 109.41 66.05 109.56 66.14 109.72 66.24 109.88 66.34 110.04 66.43 110.2 66.53 110.36 66.62 110.51 66.72 110.67 66.81 110.83 66.91 110.99 67.01 111.15 67.1 111.31 67.2 111.46 67.29 111.62 67.39 111.78 67.49 111.94 67.58 112.1 67.68 112.26 67.77 112.42 67.87 112.57 67.96 112.73 68.06 112.89 68.16 113.05 68.25 113.21 68.35 113.37 68.44 113.52 68.54 113.68 68.63 113.84 68.73 114 68.83 114.16 68.92 114.32 69.02 114.47 69.11 114.63 69.21 114.79 69.3 114.95 69.4 115.11 69.5 115.27 69.59 115.42 69.69 115.58 69.78 115.74 69.88 115.9 69.97 116.06 70.07 116.22 70.17 116.38 70.26 116.53 70.36 116.69 70.45 116.85 70.55 117.01 70.65 117.17 70.74 117.33 70.84 117.48 70.93 117.64 71.03 117.8 71.12 117.96 71.22 118.12 71.32 118.28 71.41 118.43 71.51 118.59 71.6 118.75 71.7 118.91 71.79 119.07 71.89 119.23 71.99 119.38 72.08 119.54 72.18 119.7 72.27 119.86 72.37 120.02 72.46 120.18 72.56 120.33 72.66 120.49 72.75 120.65 72.85 120.81 72.94 120.97 73.04 121.13 73.14 121.29 73.23 121.44 73.33 121.6 73.42 121.76 73.52 121.92 73.61 122.08 73.71 122.24 73.81 122.39 73.9 122.55 74 122.71 74.09 122.87 74.19 123.03 74.28 123.19 74.38 123.34 74.48 123.5 74.57 123.66 74.67 123.82 74.76 123.98 74.86 124.14 74.95 124.29 75.05 124.45 75.15 124.61 75.24 124.77 75.34 124.93 75.43 125.09 75.53 125.25 75.62 125.4 75.72 125.56 75.82 125.72 75.91 125.88 76.01 126.04 76.1 126.2 76.2 126.35 76.3 126.51 76.39 126.67 76.49 126.83 76.58 126.99 76.68 127.15 76.77 127.3 76.87 127.46 76.97 127.62 77.06 127.78 77.16 127.94 77.25 128.1 77.35 128.25 77.44 128.41 77.54 128.57 77.64 128.73 77.73 128.89 77.83 129.05 77.92 129.21 78.02 129.36 78.11 129.52 78.21 129.68 78.31 129.84 78.4 130 78.5 130.16 78.59 130.31 78.69 130.47 78.79 130.63 78.88 130.79 78.98 130.95 79.07 131.11 79.17 131.26 79.26 131.42 79.36 131.58 79.46 131.74 79.55 131.9 79.65 132.06 79.74 132.21 79.84 132.37 79.93 132.53 80.03 132.69 80.13 132.85 80.22 133.01 80.32 133.17 80.41 133.32 80.51 133.48 80.6 133.64 80.7 133.8 80.8 133.96 80.89 134.12 80.99 134.27 81.08 134.43 81.18 134.59 81.28 134.75 81.37 134.91 81.47 135.07 81.56 135.22 81.66 135.38 81.75 135.54 81.85 135.7 81.95 135.86 82.04 136.02 82.14 136.17 82.23 136.33 82.33 136.49 82.42 136.65 82.52 136.81 82.62 136.97 82.71 137.12 82.81 137.28 82.9 137.44 83 137.6 83.09 137.76 83.19 137.92 83.29 138.08 83.38 138.23 83.48 138.39 83.57 138.55 83.67 138.71 83.76 138.87 83.86 139.03 83.96 139.18 84.05 139.34 84.15 139.5 84.24 139.66 84.34 139.82 84.44 139.98 84.53 140.13 84.63 140.29 84.72 140.45 84.82 140.61 84.91 140.77 85.01 140.93 85.11 141.08 85.2 141.24 85.3 141.4 85.39 141.56 85.49 141.72 85.58 141.88 85.68 142.04 85.78 142.19 85.87 142.35 85.97 142.51 86.06 142.67 86.16 142.83 86.25 142.99 86.35 143.14 86.45 143.3 86.54 143.46 86.64 143.62 86.73 143.78 86.83 143.94 86.93 144.09 87.02 144.25 87.12 144.41 87.21 144.57 87.31 144.73 87.4 144.89 87.5 145.04 87.6 145.2 87.69 145.36 87.79 145.52 87.88 145.68 87.98 145.84 88.07 146 88.17 146.15 88.27 146.31 88.36 146.47 88.46 146.63 88.55 146.79 88.65 146.95 88.74 147.1 88.84 147.26 88.94 147.42 89.03 147.58 89.13 147.74 89.22 147.9 89.32 148.05 89.42 148.21 89.51 148.37 89.61 148.53 89.7 148.69 89.8 148.85 89.89 149 89.99 149.16 90.09 149.32 90.18 149.48 90.28 149.64 90.37 149.8 90.47 149.95 90.56 150.11 90.66 150.27 90.76 150.43 90.85 150.59 90.95 150.75 91.04 150.91 91.14 151.06 91.23 151.22 91.33 151.38 91.43 151.54 91.52 151.7 91.62 151.86 91.71 152.01 91.81 152.17 91.9 152.33 92 152.49 92.1 152.65 92.19"/>
      </g>
      <g class="geometry" id="fig-0085b070f5c349f6afae386ebf3c5040-element-11">
        <g class="color_AlphaColorValue{RGB{Float32},Float32}(RGB{Float32}(0.0f0,0.74736935f0,1.0f0),1.0f0)" stroke="#FFFFFF" stroke-width="0.3" fill="#00BFFF" id="fig-0085b070f5c349f6afae386ebf3c5040-element-12">
          <circle cx="66.68" cy="38.26" r="0.9"/>
          <circle cx="75.62" cy="44.38" r="0.9"/>
          <circle cx="79.23" cy="49.32" r="0.9"/>
          <circle cx="81.55" cy="48.48" r="0.9"/>
          <circle cx="83.24" cy="50.62" r="0.9"/>
          <circle cx="84.87" cy="49.5" r="0.9"/>
          <circle cx="86.87" cy="52.56" r="0.9"/>
          <circle cx="89.06" cy="53.85" r="0.9"/>
          <circle cx="91.95" cy="56.72" r="0.9"/>
          <circle cx="103.51" cy="64.74" r="0.9"/>
        </g>
      </g>
    </g>
  </g>
  <g class="guide ylabels" font-size="2.82" font-family="'PT Sans Caption','Helvetica Neue','Helvetica',sans-serif" fill="#6C606B" id="fig-0085b070f5c349f6afae386ebf3c5040-element-13">
    <text x="18.63" y="104.3" text-anchor="end" dy="0.35em">80</text>
    <text x="18.63" y="79.97" text-anchor="end" dy="0.35em">100</text>
    <text x="18.63" y="55.65" text-anchor="end" dy="0.35em">120</text>
    <text x="18.63" y="31.32" text-anchor="end" dy="0.35em">140</text>
    <text x="18.63" y="7" text-anchor="end" dy="0.35em">160</text>
  </g>
  <g font-size="3.88" font-family="'PT Sans','Helvetica Neue','Helvetica',sans-serif" fill="#564A55" stroke="#000000" stroke-opacity="0.000" id="fig-0085b070f5c349f6afae386ebf3c5040-element-14">
    <text x="8.81" y="53.65" text-anchor="middle" dy="0.35em" transform="rotate(-90, 8.81, 55.65)">Sales</text>
  </g>
</g>
<defs>
<clipPath id="fig-0085b070f5c349f6afae386ebf3c5040-element-5">
  <path d="M19.63,5 L 198.2 5 198.2 106.3 19.63 106.3" />
</clipPath
></defs>
</svg>
