<?xml version="1.0" encoding="UTF-8"?>
<svg xmlns="http://www.w3.org/2000/svg"
     xmlns:xlink="http://www.w3.org/1999/xlink"
     xmlns:gadfly="http://www.gadflyjl.org/ns"
     version="1.2"
     width="203.2mm" height="125.58mm" viewBox="0 0 203.2 125.58"
     stroke="none"
     fill="#000000"
     stroke-width="0.3"
     font-size="3.88"
>
<g class="plotroot xscalable yscalable" id="fig-646f8bf4366c4955ae6f1b2d8111a90d-element-1">
  <g font-size="3.88" font-family="'PT Sans','Helvetica Neue','Helvetica',sans-serif" fill="#564A55" stroke="#000000" stroke-opacity="0.000" id="fig-646f8bf4366c4955ae6f1b2d8111a90d-element-2">
    <text x="108.42" y="113.97" text-anchor="middle" dy="0.6em">SepalWidth</text>
  </g>
  <g class="guide xlabels" font-size="2.82" font-family="'PT Sans Caption','Helvetica Neue','Helvetica',sans-serif" fill="#6C606B" id="fig-646f8bf4366c4955ae6f1b2d8111a90d-element-3">
    <text x="20.63" y="107.3" text-anchor="middle" dy="0.6em">2.0</text>
    <text x="55.75" y="107.3" text-anchor="middle" dy="0.6em">2.5</text>
    <text x="90.86" y="107.3" text-anchor="middle" dy="0.6em">3.0</text>
    <text x="125.97" y="107.3" text-anchor="middle" dy="0.6em">3.5</text>
    <text x="161.09" y="107.3" text-anchor="middle" dy="0.6em">4.0</text>
    <text x="196.2" y="107.3" text-anchor="middle" dy="0.6em">4.5</text>
  </g>
  <g clip-path="url(#fig-646f8bf4366c4955ae6f1b2d8111a90d-element-5)" id="fig-646f8bf4366c4955ae6f1b2d8111a90d-element-4">
    <g pointer-events="visible" opacity="1" fill="#000000" fill-opacity="0.000" stroke="#000000" stroke-opacity="0.000" class="guide background" id="fig-646f8bf4366c4955ae6f1b2d8111a90d-element-6">
      <rect x="18.63" y="5" width="179.57" height="101.3"/>
    </g>
    <g class="guide ygridlines xfixed" stroke-dasharray="0.5,0.5" stroke-width="0.2" stroke="#D0D0E0" id="fig-646f8bf4366c4955ae6f1b2d8111a90d-element-7">
      <path fill="none" d="M18.63,104.3 L 198.2 104.3"/>
      <path fill="none" d="M18.63,71.87 L 198.2 71.87"/>
      <path fill="none" d="M18.63,39.43 L 198.2 39.43"/>
      <path fill="none" d="M18.63,7 L 198.2 7"/>
    </g>
    <g class="guide xgridlines yfixed" stroke-dasharray="0.5,0.5" stroke-width="0.2" stroke="#D0D0E0" id="fig-646f8bf4366c4955ae6f1b2d8111a90d-element-8">
      <path fill="none" d="M20.63,5 L 20.63 106.3"/>
      <path fill="none" d="M55.75,5 L 55.75 106.3"/>
      <path fill="none" d="M90.86,5 L 90.86 106.3"/>
      <path fill="none" d="M125.97,5 L 125.97 106.3"/>
      <path fill="none" d="M161.09,5 L 161.09 106.3"/>
      <path fill="none" d="M196.2,5 L 196.2 106.3"/>
    </g>
    <g class="plotpanel" id="fig-646f8bf4366c4955ae6f1b2d8111a90d-element-9">
      <g stroke-width="0.3" fill="#000000" fill-opacity="0.000" class="geometry" stroke="#00BFFF" id="fig-646f8bf4366c4955ae6f1b2d8111a90d-element-10">
        <path fill="none" d="M20.63,34.28 L 20.86 34.32 21.08 34.37 21.31 34.42 21.53 34.46 21.76 34.51 21.98 34.55 22.21 34.6 22.43 34.65 22.66 34.69 22.88 34.74 23.11 34.79 23.33 34.83 23.55 34.88 23.78 34.93 24 34.97 24.23 35.02 24.45 35.06 24.68 35.11 24.9 35.16 25.13 35.2 25.35 35.25 25.58 35.3 25.8 35.34 26.03 35.39 26.25 35.44 26.48 35.48 26.7 35.53 26.93 35.57 27.15 35.62 27.38 35.67 27.6 35.71 27.82 35.76 28.05 35.81 28.27 35.85 28.5 35.9 28.72 35.95 28.95 35.99 29.17 36.04 29.4 36.08 29.62 36.13 29.85 36.18 30.07 36.22 30.3 36.27 30.52 36.32 30.75 36.36 30.97 36.41 31.2 36.46 31.42 36.5 31.64 36.55 31.87 36.59 32.09 36.64 32.32 36.69 32.54 36.73 32.77 36.78 32.99 36.83 33.22 36.87 33.44 36.92 33.67 36.97 33.89 37.01 34.12 37.06 34.34 37.1 34.57 37.15 34.79 37.2 35.02 37.24 35.24 37.29 35.47 37.34 35.69 37.38 35.91 37.43 36.14 37.48 36.36 37.52 36.59 37.57 36.81 37.61 37.04 37.66 37.26 37.71 37.49 37.75 37.71 37.8 37.94 37.85 38.16 37.89 38.39 37.94 38.61 37.99 38.84 38.03 39.06 38.08 39.29 38.12 39.51 38.17 39.74 38.22 39.96 38.26 40.18 38.31 40.41 38.36 40.63 38.4 40.86 38.45 41.08 38.5 41.31 38.54 41.53 38.59 41.76 38.63 41.98 38.68 42.21 38.73 42.43 38.77 42.66 38.82 42.88 38.87 43.11 38.91 43.33 38.96 43.56 39.01 43.78 39.05 44.01 39.1 44.23 39.14 44.45 39.19 44.68 39.24 44.9 39.28 45.13 39.33 45.35 39.38 45.58 39.42 45.8 39.47 46.03 39.52 46.25 39.56 46.48 39.61 46.7 39.65 46.93 39.7 47.15 39.75 47.38 39.79 47.6 39.84 47.83 39.89 48.05 39.93 48.27 39.98 48.5 40.03 48.72 40.07 48.95 40.12 49.17 40.16 49.4 40.21 49.62 40.26 49.85 40.3 50.07 40.35 50.3 40.4 50.52 40.44 50.75 40.49 50.97 40.54 51.2 40.58 51.42 40.63 51.65 40.67 51.87 40.72 52.1 40.77 52.32 40.81 52.54 40.86 52.77 40.91 52.99 40.95 53.22 41 53.44 41.05 53.67 41.09 53.89 41.14 54.12 41.18 54.34 41.23 54.57 41.28 54.79 41.32 55.02 41.37 55.24 41.42 55.47 41.46 55.69 41.51 55.92 41.56 56.14 41.6 56.37 41.65 56.59 41.69 56.81 41.74 57.04 41.79 57.26 41.83 57.49 41.88 57.71 41.93 57.94 41.97 58.16 42.02 58.39 42.07 58.61 42.11 58.84 42.16 59.06 42.2 59.29 42.25 59.51 42.3 59.74 42.34 59.96 42.39 60.19 42.44 60.41 42.48 60.63 42.53 60.86 42.58 61.08 42.62 61.31 42.67 61.53 42.71 61.76 42.76 61.98 42.81 62.21 42.85 62.43 42.9 62.66 42.95 62.88 42.99 63.11 43.04 63.33 43.09 63.56 43.13 63.78 43.18 64.01 43.22 64.23 43.27 64.46 43.32 64.68 43.36 64.9 43.41 65.13 43.46 65.35 43.5 65.58 43.55 65.8 43.6 66.03 43.64 66.25 43.69 66.48 43.73 66.7 43.78 66.93 43.83 67.15 43.87 67.38 43.92 67.6 43.97 67.83 44.01 68.05 44.06 68.28 44.11 68.5 44.15 68.73 44.2 68.95 44.24 69.17 44.29 69.4 44.34 69.62 44.38 69.85 44.43 70.07 44.48 70.3 44.52 70.52 44.57 70.75 44.62 70.97 44.66 71.2 44.71 71.42 44.75 71.65 44.8 71.87 44.85 72.1 44.89 72.32 44.94 72.55 44.99 72.77 45.03 72.99 45.08 73.22 45.13 73.44 45.17 73.67 45.22 73.89 45.26 74.12 45.31 74.34 45.36 74.57 45.4 74.79 45.45 75.02 45.5 75.24 45.54 75.47 45.59 75.69 45.64 75.92 45.68 76.14 45.73 76.37 45.77 76.59 45.82 76.82 45.87 77.04 45.91 77.26 45.96 77.49 46.01 77.71 46.05 77.94 46.1 78.16 46.15 78.39 46.19 78.61 46.24 78.84 46.28 79.06 46.33 79.29 46.38 79.51 46.42 79.74 46.47 79.96 46.52 80.19 46.56 80.41 46.61 80.64 46.66 80.86 46.7 81.09 46.75 81.31 46.79 81.53 46.84 81.76 46.89 81.98 46.93 82.21 46.98 82.43 47.03 82.66 47.07 82.88 47.12 83.11 47.17 83.33 47.21 83.56 47.26 83.78 47.3 84.01 47.35 84.23 47.4 84.46 47.44 84.68 47.49 84.91 47.54 85.13 47.58 85.35 47.63 85.58 47.68 85.8 47.72 86.03 47.77 86.25 47.81 86.48 47.86 86.7 47.91 86.93 47.95 87.15 48 87.38 48.05 87.6 48.09 87.83 48.14 88.05 48.19 88.28 48.23 88.5 48.28 88.73 48.32 88.95 48.37 89.18 48.42 89.4 48.46 89.62 48.51 89.85 48.56 90.07 48.6 90.3 48.65 90.52 48.7 90.75 48.74 90.97 48.79 91.2 48.83 91.42 48.88 91.65 48.93 91.87 48.97 92.1 49.02 92.32 49.07 92.55 49.11 92.77 49.16 93 49.21 93.22 49.25 93.45 49.3 93.67 49.34 93.89 49.39 94.12 49.44 94.34 49.48 94.57 49.53 94.79 49.58 95.02 49.62 95.24 49.67 95.47 49.72 95.69 49.76 95.92 49.81 96.14 49.85 96.37 49.9 96.59 49.95 96.82 49.99 97.04 50.04 97.27 50.09 97.49 50.13 97.71 50.18 97.94 50.23 98.16 50.27 98.39 50.32 98.61 50.36 98.84 50.41 99.06 50.46 99.29 50.5 99.51 50.55 99.74 50.6 99.96 50.64 100.19 50.69 100.41 50.74 100.64 50.78 100.86 50.83 101.09 50.87 101.31 50.92 101.54 50.97 101.76 51.01 101.98 51.06 102.21 51.11 102.43 51.15 102.66 51.2 102.88 51.25 103.11 51.29 103.33 51.34 103.56 51.38 103.78 51.43 104.01 51.48 104.23 51.52 104.46 51.57 104.68 51.62 104.91 51.66 105.13 51.71 105.36 51.76 105.58 51.8 105.81 51.85 106.03 51.89 106.25 51.94 106.48 51.99 106.7 52.03 106.93 52.08 107.15 52.13 107.38 52.17 107.6 52.22 107.83 52.27 108.05 52.31 108.28 52.36 108.5 52.4 108.73 52.45 108.95 52.5 109.18 52.54 109.4 52.59 109.63 52.64 109.85 52.68 110.07 52.73 110.3 52.78 110.52 52.82 110.75 52.87 110.97 52.91 111.2 52.96 111.42 53.01 111.65 53.05 111.87 53.1 112.1 53.15 112.32 53.19 112.55 53.24 112.77 53.29 113 53.33 113.22 53.38 113.45 53.42 113.67 53.47 113.9 53.52 114.12 53.56 114.34 53.61 114.57 53.66 114.79 53.7 115.02 53.75 115.24 53.8 115.47 53.84 115.69 53.89 115.92 53.93 116.14 53.98 116.37 54.03 116.59 54.07 116.82 54.12 117.04 54.17 117.27 54.21 117.49 54.26 117.72 54.31 117.94 54.35 118.17 54.4 118.39 54.44 118.61 54.49 118.84 54.54 119.06 54.58 119.29 54.63 119.51 54.68 119.74 54.72 119.96 54.77 120.19 54.82 120.41 54.86 120.64 54.91 120.86 54.95 121.09 55 121.31 55.05 121.54 55.09 121.76 55.14 121.99 55.19 122.21 55.23 122.43 55.28 122.66 55.33 122.88 55.37 123.11 55.42 123.33 55.46 123.56 55.51 123.78 55.56 124.01 55.6 124.23 55.65 124.46 55.7 124.68 55.74 124.91 55.79 125.13 55.84 125.36 55.88 125.58 55.93 125.81 55.97 126.03 56.02 126.26 56.07 126.48 56.11 126.7 56.16 126.93 56.21 127.15 56.25 127.38 56.3 127.6 56.35 127.83 56.39 128.05 56.44 128.28 56.48 128.5 56.53 128.73 56.58 128.95 56.62 129.18 56.67 129.4 56.72 129.63 56.76 129.85 56.81 130.08 56.86 130.3 56.9 130.53 56.95 130.75 56.99 130.97 57.04 131.2 57.09 131.42 57.13 131.65 57.18 131.87 57.23 132.1 57.27 132.32 57.32 132.55 57.37 132.77 57.41 133 57.46 133.22 57.5 133.45 57.55 133.67 57.6 133.9 57.64 134.12 57.69 134.35 57.74 134.57 57.78 134.79 57.83 135.02 57.88 135.24 57.92 135.47 57.97 135.69 58.01 135.92 58.06 136.14 58.11 136.37 58.15 136.59 58.2 136.82 58.25 137.04 58.29 137.27 58.34 137.49 58.39 137.72 58.43 137.94 58.48 138.17 58.52 138.39 58.57 138.62 58.62 138.84 58.66 139.06 58.71 139.29 58.76 139.51 58.8 139.74 58.85 139.96 58.9 140.19 58.94 140.41 58.99 140.64 59.03 140.86 59.08 141.09 59.13 141.31 59.17 141.54 59.22 141.76 59.27 141.99 59.31 142.21 59.36 142.44 59.41 142.66 59.45 142.89 59.5 143.11 59.54 143.33 59.59 143.56 59.64 143.78 59.68 144.01 59.73 144.23 59.78 144.46 59.82 144.68 59.87 144.91 59.92 145.13 59.96 145.36 60.01 145.58 60.05 145.81 60.1 146.03 60.15 146.26 60.19 146.48 60.24 146.71 60.29 146.93 60.33 147.15 60.38 147.38 60.43 147.6 60.47 147.83 60.52 148.05 60.56 148.28 60.61 148.5 60.66 148.73 60.7 148.95 60.75 149.18 60.8 149.4 60.84 149.63 60.89 149.85 60.94 150.08 60.98 150.3 61.03 150.53 61.07 150.75 61.12 150.98 61.17 151.2 61.21 151.42 61.26 151.65 61.31 151.87 61.35 152.1 61.4 152.32 61.45 152.55 61.49 152.77 61.54 153 61.58 153.22 61.63 153.45 61.68 153.67 61.72 153.9 61.77 154.12 61.82 154.35 61.86 154.57 61.91 154.8 61.96 155.02 62 155.25 62.05 155.47 62.09 155.69 62.14 155.92 62.19 156.14 62.23 156.37 62.28 156.59 62.33 156.82 62.37 157.04 62.42 157.27 62.47 157.49 62.51 157.72 62.56 157.94 62.6 158.17 62.65 158.39 62.7 158.62 62.74 158.84 62.79 159.07 62.84 159.29 62.88 159.51 62.93 159.74 62.98 159.96 63.02 160.19 63.07 160.41 63.11 160.64 63.16 160.86 63.21 161.09 63.25 161.31 63.3 161.54 63.35 161.76 63.39 161.99 63.44 162.21 63.49 162.44 63.53 162.66 63.58 162.89 63.62 163.11 63.67 163.34 63.72 163.56 63.76 163.78 63.81 164.01 63.86 164.23 63.9 164.46 63.95 164.68 64 164.91 64.04 165.13 64.09 165.36 64.13 165.58 64.18 165.81 64.23 166.03 64.27 166.26 64.32 166.48 64.37 166.71 64.41 166.93 64.46 167.16 64.51 167.38 64.55 167.61 64.6 167.83 64.64 168.05 64.69 168.28 64.74 168.5 64.78 168.73 64.83 168.95 64.88 169.18 64.92 169.4 64.97 169.63 65.02 169.85 65.06 170.08 65.11 170.3 65.15 170.53 65.2 170.75 65.25 170.98 65.29 171.2 65.34 171.43 65.39 171.65 65.43 171.87 65.48 172.1 65.53 172.32 65.57 172.55 65.62 172.77 65.66 173 65.71 173.22 65.76 173.45 65.8 173.67 65.85 173.9 65.9 174.12 65.94 174.35 65.99 174.57 66.04 174.8 66.08 175.02 66.13 175.25 66.17 175.47 66.22 175.7 66.27 175.92 66.31 176.14 66.36 176.37 66.41 176.59 66.45 176.82 66.5 177.04 66.55 177.27 66.59 177.49 66.64 177.72 66.68 177.94 66.73 178.17 66.78 178.39 66.82 178.62 66.87 178.84 66.92 179.07 66.96 179.29 67.01 179.52 67.06 179.74 67.1 179.97 67.15 180.19 67.19 180.41 67.24 180.64 67.29 180.86 67.33 181.09 67.38 181.31 67.43 181.54 67.47 181.76 67.52 181.99 67.57 182.21 67.61 182.44 67.66 182.66 67.7 182.89 67.75 183.11 67.8 183.34 67.84 183.56 67.89 183.79 67.94 184.01 67.98 184.23 68.03 184.46 68.08 184.68 68.12 184.91 68.17 185.13 68.21 185.36 68.26 185.58 68.31 185.81 68.35 186.03 68.4 186.26 68.45 186.48 68.49 186.71 68.54 186.93 68.59 187.16 68.63 187.38 68.68 187.61 68.72 187.83 68.77 188.06 68.82 188.28 68.86 188.5 68.91 188.73 68.96 188.95 69"/>
      </g>
      <g class="geometry" id="fig-646f8bf4366c4955ae6f1b2d8111a90d-element-11">
        <g class="color_AlphaColorValue{RGB{Float32},Float32}(RGB{Float32}(0.0f0,0.74736935f0,1.0f0),1.0f0)" stroke="#FFFFFF" stroke-width="0.3" fill="#00BFFF" id="fig-646f8bf4366c4955ae6f1b2d8111a90d-element-12">
          <circle cx="46.5" cy="65.04" r="0.9"/>
          <circle cx="67.28" cy="41.75" r="0.9"/>
          <circle cx="76.81" cy="17.66" r="0.9"/>
          <circle cx="88.91" cy="37.63" r="0.9"/>
          <circle cx="97.88" cy="37.07" r="0.9"/>
          <circle cx="104.9" cy="46.92" r="0.9"/>
          <circle cx="116.61" cy="68.62" r="0.9"/>
          <circle cx="128.78" cy="87.43" r="0.9"/>
          <circle cx="153.6" cy="59.33" r="0.9"/>
        </g>
      </g>
    </g>
  </g>
  <g class="guide ylabels" font-size="2.82" font-family="'PT Sans Caption','Helvetica Neue','Helvetica',sans-serif" fill="#6C606B" id="fig-646f8bf4366c4955ae6f1b2d8111a90d-element-13">
    <text x="17.63" y="104.3" text-anchor="end" dy="0.35em">5.0</text>
    <text x="17.63" y="71.87" text-anchor="end" dy="0.35em">5.5</text>
    <text x="17.63" y="39.43" text-anchor="end" dy="0.35em">6.0</text>
    <text x="17.63" y="7" text-anchor="end" dy="0.35em">6.5</text>
  </g>
  <g font-size="3.88" font-family="'PT Sans','Helvetica Neue','Helvetica',sans-serif" fill="#564A55" stroke="#000000" stroke-opacity="0.000" id="fig-646f8bf4366c4955ae6f1b2d8111a90d-element-14">
    <text x="8.81" y="53.65" text-anchor="middle" dy="0.35em" transform="rotate(-90, 8.81, 55.65)">SepalLength</text>
  </g>
</g>
<defs>
<clipPath id="fig-646f8bf4366c4955ae6f1b2d8111a90d-element-5">
  <path d="M18.63,5 L 198.2 5 198.2 106.3 18.63 106.3" />
</clipPath
></defs>
</svg>
