<?xml version="1.0" encoding="UTF-8"?>
<svg xmlns="http://www.w3.org/2000/svg"
     xmlns:xlink="http://www.w3.org/1999/xlink"
     xmlns:gadfly="http://www.gadflyjl.org/ns"
     version="1.2"
     width="203.2mm" height="125.58mm" viewBox="0 0 203.2 125.58"
     stroke="none"
     fill="#000000"
     stroke-width="0.3"
     font-size="3.88"
>
<g class="plotroot xscalable yscalable" id="fig-537c1b6b97b14241bf9bed3d23fe9d7b-element-1">
  <g font-size="3.88" font-family="'PT Sans','Helvetica Neue','Helvetica',sans-serif" fill="#564A55" stroke="#000000" stroke-opacity="0.000" id="fig-537c1b6b97b14241bf9bed3d23fe9d7b-element-2">
    <text x="99.45" y="113.97" text-anchor="middle" dy="0.6em">SepalWidth</text>
  </g>
  <g class="guide xlabels" font-size="2.82" font-family="'PT Sans Caption','Helvetica Neue','Helvetica',sans-serif" fill="#6C606B" id="fig-537c1b6b97b14241bf9bed3d23fe9d7b-element-3">
    <text x="18.29" y="107.3" text-anchor="middle" dy="0.6em">2.0</text>
    <text x="50.75" y="107.3" text-anchor="middle" dy="0.6em">2.5</text>
    <text x="83.21" y="107.3" text-anchor="middle" dy="0.6em">3.0</text>
    <text x="115.68" y="107.3" text-anchor="middle" dy="0.6em">3.5</text>
    <text x="148.14" y="107.3" text-anchor="middle" dy="0.6em">4.0</text>
    <text x="180.61" y="107.3" text-anchor="middle" dy="0.6em">4.5</text>
  </g>
  <g class="guide colorkey" id="fig-537c1b6b97b14241bf9bed3d23fe9d7b-element-4">
    <g fill="#4C404B" font-size="2.82" font-family="'PT Sans','Helvetica Neue','Helvetica',sans-serif" id="fig-537c1b6b97b14241bf9bed3d23fe9d7b-element-5">
      <text x="186.42" y="53.84" dy="0.35em" id="fig-537c1b6b97b14241bf9bed3d23fe9d7b-element-6" class="color_setosa">setosa</text>
      <text x="186.42" y="57.46" dy="0.35em" id="fig-537c1b6b97b14241bf9bed3d23fe9d7b-element-7" class="color_versicolor">versicolor</text>
      <text x="186.42" y="61.09" dy="0.35em" id="fig-537c1b6b97b14241bf9bed3d23fe9d7b-element-8" class="color_virginica">virginica</text>
    </g>
    <g stroke="#000000" stroke-opacity="0.000" id="fig-537c1b6b97b14241bf9bed3d23fe9d7b-element-9">
      <rect x="183.61" y="52.93" width="1.81" height="1.81" id="fig-537c1b6b97b14241bf9bed3d23fe9d7b-element-10" fill="#00BFFF" class="color_setosa"/>
      <rect x="183.61" y="56.56" width="1.81" height="1.81" id="fig-537c1b6b97b14241bf9bed3d23fe9d7b-element-11" fill="#D4CA3A" class="color_versicolor"/>
      <rect x="183.61" y="60.18" width="1.81" height="1.81" id="fig-537c1b6b97b14241bf9bed3d23fe9d7b-element-12" fill="#FF5EA0" class="color_virginica"/>
    </g>
    <g fill="#362A35" font-size="3.88" font-family="'PT Sans','Helvetica Neue','Helvetica',sans-serif" stroke="#000000" stroke-opacity="0.000" id="fig-537c1b6b97b14241bf9bed3d23fe9d7b-element-13">
      <text x="183.61" y="50.02" id="fig-537c1b6b97b14241bf9bed3d23fe9d7b-element-14">Species</text>
    </g>
  </g>
  <g clip-path="url(#fig-537c1b6b97b14241bf9bed3d23fe9d7b-element-16)" id="fig-537c1b6b97b14241bf9bed3d23fe9d7b-element-15">
    <g pointer-events="visible" opacity="1" fill="#000000" fill-opacity="0.000" stroke="#000000" stroke-opacity="0.000" class="guide background" id="fig-537c1b6b97b14241bf9bed3d23fe9d7b-element-17">
      <rect x="16.28" y="5" width="166.32" height="101.3" id="fig-537c1b6b97b14241bf9bed3d23fe9d7b-element-18"/>
    </g>
    <g class="guide ygridlines xfixed" stroke-dasharray="0.5,0.5" stroke-width="0.2" stroke="#D0D0E0" id="fig-537c1b6b97b14241bf9bed3d23fe9d7b-element-19">
      <path fill="none" d="M16.28,104.3 L 182.61 104.3" id="fig-537c1b6b97b14241bf9bed3d23fe9d7b-element-20"/>
      <path fill="none" d="M16.28,79.97 L 182.61 79.97" id="fig-537c1b6b97b14241bf9bed3d23fe9d7b-element-21"/>
      <path fill="none" d="M16.28,55.65 L 182.61 55.65" id="fig-537c1b6b97b14241bf9bed3d23fe9d7b-element-22"/>
      <path fill="none" d="M16.28,31.32 L 182.61 31.32" id="fig-537c1b6b97b14241bf9bed3d23fe9d7b-element-23"/>
      <path fill="none" d="M16.28,7 L 182.61 7" id="fig-537c1b6b97b14241bf9bed3d23fe9d7b-element-24"/>
    </g>
    <g class="guide xgridlines yfixed" stroke-dasharray="0.5,0.5" stroke-width="0.2" stroke="#D0D0E0" id="fig-537c1b6b97b14241bf9bed3d23fe9d7b-element-25">
      <path fill="none" d="M18.29,5 L 18.29 106.3" id="fig-537c1b6b97b14241bf9bed3d23fe9d7b-element-26"/>
      <path fill="none" d="M50.75,5 L 50.75 106.3" id="fig-537c1b6b97b14241bf9bed3d23fe9d7b-element-27"/>
      <path fill="none" d="M83.21,5 L 83.21 106.3" id="fig-537c1b6b97b14241bf9bed3d23fe9d7b-element-28"/>
      <path fill="none" d="M115.68,5 L 115.68 106.3" id="fig-537c1b6b97b14241bf9bed3d23fe9d7b-element-29"/>
      <path fill="none" d="M148.14,5 L 148.14 106.3" id="fig-537c1b6b97b14241bf9bed3d23fe9d7b-element-30"/>
      <path fill="none" d="M180.61,5 L 180.61 106.3" id="fig-537c1b6b97b14241bf9bed3d23fe9d7b-element-31"/>
    </g>
    <g class="plotpanel" id="fig-537c1b6b97b14241bf9bed3d23fe9d7b-element-32">
      <g stroke-width="0.3" fill="#000000" fill-opacity="0.000" id="fig-537c1b6b97b14241bf9bed3d23fe9d7b-element-33">
        <path fill="none" d="M37.76,98.77 L 37.95 98.73 38.13 98.68 38.31 98.63 38.49 98.59 38.67 98.54 38.86 98.49 39.04 98.45 39.22 98.4 39.4 98.35 39.58 98.3 39.76 98.26 39.95 98.21 40.13 98.16 40.31 98.12 40.49 98.07 40.67 98.02 40.86 97.97 41.04 97.93 41.22 97.88 41.4 97.83 41.58 97.79 41.76 97.74 41.95 97.69 42.13 97.65 42.31 97.6 42.49 97.55 42.67 97.5 42.86 97.46 43.04 97.41 43.22 97.36 43.4 97.32 43.58 97.27 43.76 97.22 43.95 97.18 44.13 97.13 44.31 97.08 44.49 97.03 44.67 96.99 44.86 96.94 45.04 96.89 45.22 96.85 45.4 96.8 45.58 96.75 45.76 96.71 45.95 96.66 46.13 96.61 46.31 96.56 46.49 96.52 46.67 96.47 46.85 96.42 47.04 96.38 47.22 96.33 47.4 96.28 47.58 96.23 47.76 96.19 47.95 96.14 48.13 96.09 48.31 96.05 48.49 96 48.67 95.95 48.85 95.91 49.04 95.86 49.22 95.81 49.4 95.76 49.58 95.72 49.76 95.67 49.95 95.62 50.13 95.58 50.31 95.53 50.49 95.48 50.67 95.44 50.85 95.39 51.04 95.34 51.22 95.29 51.4 95.25 51.58 95.2 51.76 95.15 51.95 95.11 52.13 95.06 52.31 95.01 52.49 94.96 52.67 94.92 52.85 94.87 53.04 94.82 53.22 94.78 53.4 94.73 53.58 94.68 53.76 94.64 53.95 94.59 54.13 94.54 54.31 94.49 54.49 94.45 54.67 94.4 54.85 94.35 55.04 94.31 55.22 94.26 55.4 94.21 55.58 94.17 55.76 94.12 55.94 94.07 56.13 94.02 56.31 93.98 56.49 93.93 56.67 93.88 56.85 93.84 57.04 93.79 57.22 93.74 57.4 93.7 57.58 93.65 57.76 93.6 57.94 93.55 58.13 93.51 58.31 93.46 58.49 93.41 58.67 93.37 58.85 93.32 59.04 93.27 59.22 93.22 59.4 93.18 59.58 93.13 59.76 93.08 59.94 93.04 60.13 92.99 60.31 92.94 60.49 92.9 60.67 92.85 60.85 92.8 61.04 92.75 61.22 92.71 61.4 92.66 61.58 92.61 61.76 92.57 61.94 92.52 62.13 92.47 62.31 92.43 62.49 92.38 62.67 92.33 62.85 92.28 63.04 92.24 63.22 92.19 63.4 92.14 63.58 92.1 63.76 92.05 63.94 92 64.13 91.96 64.31 91.91 64.49 91.86 64.67 91.81 64.85 91.77 65.04 91.72 65.22 91.67 65.4 91.63 65.58 91.58 65.76 91.53 65.94 91.48 66.13 91.44 66.31 91.39 66.49 91.34 66.67 91.3 66.85 91.25 67.03 91.2 67.22 91.16 67.4 91.11 67.58 91.06 67.76 91.01 67.94 90.97 68.13 90.92 68.31 90.87 68.49 90.83 68.67 90.78 68.85 90.73 69.03 90.69 69.22 90.64 69.4 90.59 69.58 90.54 69.76 90.5 69.94 90.45 70.13 90.4 70.31 90.36 70.49 90.31 70.67 90.26 70.85 90.22 71.03 90.17 71.22 90.12 71.4 90.07 71.58 90.03 71.76 89.98 71.94 89.93 72.13 89.89 72.31 89.84 72.49 89.79 72.67 89.74 72.85 89.7 73.03 89.65 73.22 89.6 73.4 89.56 73.58 89.51 73.76 89.46 73.94 89.42 74.13 89.37 74.31 89.32 74.49 89.27 74.67 89.23 74.85 89.18 75.03 89.13 75.22 89.09 75.4 89.04 75.58 88.99 75.76 88.95 75.94 88.9 76.12 88.85 76.31 88.8 76.49 88.76 76.67 88.71 76.85 88.66 77.03 88.62 77.22 88.57 77.4 88.52 77.58 88.47 77.76 88.43 77.94 88.38 78.12 88.33 78.31 88.29 78.49 88.24 78.67 88.19 78.85 88.15 79.03 88.1 79.22 88.05 79.4 88 79.58 87.96 79.76 87.91 79.94 87.86 80.12 87.82 80.31 87.77 80.49 87.72 80.67 87.68 80.85 87.63 81.03 87.58 81.22 87.53 81.4 87.49 81.58 87.44 81.76 87.39 81.94 87.35 82.12 87.3 82.31 87.25 82.49 87.21 82.67 87.16 82.85 87.11 83.03 87.06 83.22 87.02 83.4 86.97 83.58 86.92 83.76 86.88 83.94 86.83 84.12 86.78 84.31 86.73 84.49 86.69 84.67 86.64 84.85 86.59 85.03 86.55 85.21 86.5 85.4 86.45 85.58 86.41 85.76 86.36 85.94 86.31 86.12 86.26 86.31 86.22 86.49 86.17 86.67 86.12 86.85 86.08 87.03 86.03 87.21 85.98 87.4 85.94 87.58 85.89 87.76 85.84 87.94 85.79 88.12 85.75 88.31 85.7 88.49 85.65 88.67 85.61 88.85 85.56 89.03 85.51 89.21 85.47 89.4 85.42 89.58 85.37 89.76 85.32 89.94 85.28 90.12 85.23 90.31 85.18 90.49 85.14 90.67 85.09 90.85 85.04 91.03 84.99 91.21 84.95 91.4 84.9 91.58 84.85 91.76 84.81 91.94 84.76 92.12 84.71 92.31 84.67 92.49 84.62 92.67 84.57 92.85 84.52 93.03 84.48 93.21 84.43 93.4 84.38 93.58 84.34 93.76 84.29 93.94 84.24 94.12 84.2 94.3 84.15 94.49 84.1 94.67 84.05 94.85 84.01 95.03 83.96 95.21 83.91 95.4 83.87 95.58 83.82 95.76 83.77 95.94 83.73 96.12 83.68 96.3 83.63 96.49 83.58 96.67 83.54 96.85 83.49 97.03 83.44 97.21 83.4 97.4 83.35 97.58 83.3 97.76 83.25 97.94 83.21 98.12 83.16 98.3 83.11 98.49 83.07 98.67 83.02 98.85 82.97 99.03 82.93 99.21 82.88 99.4 82.83 99.58 82.78 99.76 82.74 99.94 82.69 100.12 82.64 100.3 82.6 100.49 82.55 100.67 82.5 100.85 82.46 101.03 82.41 101.21 82.36 101.4 82.31 101.58 82.27 101.76 82.22 101.94 82.17 102.12 82.13 102.3 82.08 102.49 82.03 102.67 81.98 102.85 81.94 103.03 81.89 103.21 81.84 103.39 81.8 103.58 81.75 103.76 81.7 103.94 81.66 104.12 81.61 104.3 81.56 104.49 81.51 104.67 81.47 104.85 81.42 105.03 81.37 105.21 81.33 105.39 81.28 105.58 81.23 105.76 81.19 105.94 81.14 106.12 81.09 106.3 81.04 106.49 81 106.67 80.95 106.85 80.9 107.03 80.86 107.21 80.81 107.39 80.76 107.58 80.72 107.76 80.67 107.94 80.62 108.12 80.57 108.3 80.53 108.49 80.48 108.67 80.43 108.85 80.39 109.03 80.34 109.21 80.29 109.39 80.24 109.58 80.2 109.76 80.15 109.94 80.1 110.12 80.06 110.3 80.01 110.49 79.96 110.67 79.92 110.85 79.87 111.03 79.82 111.21 79.77 111.39 79.73 111.58 79.68 111.76 79.63 111.94 79.59 112.12 79.54 112.3 79.49 112.48 79.45 112.67 79.4 112.85 79.35 113.03 79.3 113.21 79.26 113.39 79.21 113.58 79.16 113.76 79.12 113.94 79.07 114.12 79.02 114.3 78.98 114.48 78.93 114.67 78.88 114.85 78.83 115.03 78.79 115.21 78.74 115.39 78.69 115.58 78.65 115.76 78.6 115.94 78.55 116.12 78.5 116.3 78.46 116.48 78.41 116.67 78.36 116.85 78.32 117.03 78.27 117.21 78.22 117.39 78.18 117.58 78.13 117.76 78.08 117.94 78.03 118.12 77.99 118.3 77.94 118.48 77.89 118.67 77.85 118.85 77.8 119.03 77.75 119.21 77.71 119.39 77.66 119.58 77.61 119.76 77.56 119.94 77.52 120.12 77.47 120.3 77.42 120.48 77.38 120.67 77.33 120.85 77.28 121.03 77.24 121.21 77.19 121.39 77.14 121.57 77.09 121.76 77.05 121.94 77 122.12 76.95 122.3 76.91 122.48 76.86 122.67 76.81 122.85 76.76 123.03 76.72 123.21 76.67 123.39 76.62 123.57 76.58 123.76 76.53 123.94 76.48 124.12 76.44 124.3 76.39 124.48 76.34 124.67 76.29 124.85 76.25 125.03 76.2 125.21 76.15 125.39 76.11 125.57 76.06 125.76 76.01 125.94 75.97 126.12 75.92 126.3 75.87 126.48 75.82 126.67 75.78 126.85 75.73 127.03 75.68 127.21 75.64 127.39 75.59 127.57 75.54 127.76 75.49 127.94 75.45 128.12 75.4 128.3 75.35 128.48 75.31 128.67 75.26 128.85 75.21 129.03 75.17 129.21 75.12 129.39 75.07 129.57 75.02 129.76 74.98 129.94 74.93 130.12 74.88 130.3 74.84 130.48 74.79 130.66 74.74 130.85 74.7 131.03 74.65 131.21 74.6 131.39 74.55 131.57 74.51 131.76 74.46 131.94 74.41 132.12 74.37 132.3 74.32 132.48 74.27 132.66 74.23 132.85 74.18 133.03 74.13 133.21 74.08 133.39 74.04 133.57 73.99 133.76 73.94 133.94 73.9 134.12 73.85 134.3 73.8 134.48 73.75 134.66 73.71 134.85 73.66 135.03 73.61 135.21 73.57 135.39 73.52 135.57 73.47 135.76 73.43 135.94 73.38 136.12 73.33 136.3 73.28 136.48 73.24 136.66 73.19 136.85 73.14 137.03 73.1 137.21 73.05 137.39 73 137.57 72.96 137.76 72.91 137.94 72.86 138.12 72.81 138.3 72.77 138.48 72.72 138.66 72.67 138.85 72.63 139.03 72.58 139.21 72.53 139.39 72.49 139.57 72.44 139.75 72.39 139.94 72.34 140.12 72.3 140.3 72.25 140.48 72.2 140.66 72.16 140.85 72.11 141.03 72.06 141.21 72.01 141.39 71.97 141.57 71.92 141.75 71.87 141.94 71.83 142.12 71.78 142.3 71.73 142.48 71.69 142.66 71.64 142.85 71.59 143.03 71.54 143.21 71.5 143.39 71.45 143.57 71.4 143.75 71.36 143.94 71.31 144.12 71.26 144.3 71.22 144.48 71.17 144.66 71.12 144.85 71.07 145.03 71.03 145.21 70.98 145.39 70.93 145.57 70.89 145.75 70.84 145.94 70.79 146.12 70.75 146.3 70.7 146.48 70.65 146.66 70.6 146.85 70.56 147.03 70.51 147.21 70.46 147.39 70.42 147.57 70.37 147.75 70.32 147.94 70.27 148.12 70.23 148.3 70.18 148.48 70.13 148.66 70.09 148.84 70.04 149.03 69.99 149.21 69.95 149.39 69.9 149.57 69.85 149.75 69.8 149.94 69.76 150.12 69.71 150.3 69.66 150.48 69.62 150.66 69.57 150.84 69.52 151.03 69.48 151.21 69.43 151.39 69.38 151.57 69.33 151.75 69.29 151.94 69.24 152.12 69.19 152.3 69.15 152.48 69.1 152.66 69.05 152.84 69 153.03 68.96 153.21 68.91 153.39 68.86 153.57 68.82 153.75 68.77 153.94 68.72 154.12 68.68 154.3 68.63 154.48 68.58 154.66 68.53 154.84 68.49 155.03 68.44 155.21 68.39 155.39 68.35 155.57 68.3 155.75 68.25 155.94 68.21 156.12 68.16 156.3 68.11 156.48 68.06 156.66 68.02 156.84 67.97 157.03 67.92 157.21 67.88 157.39 67.83 157.57 67.78 157.75 67.74 157.93 67.69 158.12 67.64 158.3 67.59 158.48 67.55 158.66 67.5 158.84 67.45 159.03 67.41 159.21 67.36 159.39 67.31 159.57 67.26 159.75 67.22 159.93 67.17 160.12 67.12 160.3 67.08 160.48 67.03 160.66 66.98 160.84 66.94 161.03 66.89 161.21 66.84 161.39 66.79 161.57 66.75 161.75 66.7 161.93 66.65 162.12 66.61 162.3 66.56 162.48 66.51 162.66 66.47 162.84 66.42 163.03 66.37 163.21 66.32 163.39 66.28 163.57 66.23 163.75 66.18 163.93 66.14 164.12 66.09 164.3 66.04 164.48 66 164.66 65.95 164.84 65.9 165.03 65.85 165.21 65.81 165.39 65.76 165.57 65.71 165.75 65.67 165.93 65.62 166.12 65.57 166.3 65.52 166.48 65.48 166.66 65.43 166.84 65.38 167.02 65.34 167.21 65.29 167.39 65.24 167.57 65.2 167.75 65.15 167.93 65.1 168.12 65.05 168.3 65.01 168.48 64.96 168.66 64.91 168.84 64.87 169.02 64.82 169.21 64.77 169.39 64.73 169.57 64.68 169.75 64.63 169.93 64.58 170.12 64.54 170.3 64.49 170.48 64.44 170.66 64.4 170.84 64.35 171.02 64.3 171.21 64.26 171.39 64.21 171.57 64.16 171.75 64.11 171.93 64.07 172.12 64.02 172.3 63.97 172.48 63.93 172.66 63.88 172.84 63.83 173.02 63.78 173.21 63.74 173.39 63.69 173.57 63.64 173.75 63.6 173.93 63.55" id="fig-537c1b6b97b14241bf9bed3d23fe9d7b-element-34" class="geometry color_setosa" stroke="#00BFFF"/>
        <path fill="none" d="M18.29,73.41 L 18.41 73.37 18.53 73.33 18.65 73.29 18.77 73.25 18.89 73.21 19.01 73.17 19.13 73.13 19.26 73.1 19.38 73.06 19.5 73.02 19.62 72.98 19.74 72.94 19.86 72.9 19.98 72.86 20.1 72.82 20.23 72.78 20.35 72.74 20.47 72.7 20.59 72.66 20.71 72.62 20.83 72.58 20.95 72.55 21.07 72.51 21.19 72.47 21.32 72.43 21.44 72.39 21.56 72.35 21.68 72.31 21.8 72.27 21.92 72.23 22.04 72.19 22.16 72.15 22.29 72.11 22.41 72.07 22.53 72.03 22.65 72 22.77 71.96 22.89 71.92 23.01 71.88 23.13 71.84 23.26 71.8 23.38 71.76 23.5 71.72 23.62 71.68 23.74 71.64 23.86 71.6 23.98 71.56 24.1 71.52 24.22 71.48 24.35 71.45 24.47 71.41 24.59 71.37 24.71 71.33 24.83 71.29 24.95 71.25 25.07 71.21 25.19 71.17 25.32 71.13 25.44 71.09 25.56 71.05 25.68 71.01 25.8 70.97 25.92 70.93 26.04 70.9 26.16 70.86 26.29 70.82 26.41 70.78 26.53 70.74 26.65 70.7 26.77 70.66 26.89 70.62 27.01 70.58 27.13 70.54 27.25 70.5 27.38 70.46 27.5 70.42 27.62 70.38 27.74 70.35 27.86 70.31 27.98 70.27 28.1 70.23 28.22 70.19 28.35 70.15 28.47 70.11 28.59 70.07 28.71 70.03 28.83 69.99 28.95 69.95 29.07 69.91 29.19 69.87 29.32 69.83 29.44 69.8 29.56 69.76 29.68 69.72 29.8 69.68 29.92 69.64 30.04 69.6 30.16 69.56 30.28 69.52 30.41 69.48 30.53 69.44 30.65 69.4 30.77 69.36 30.89 69.32 31.01 69.28 31.13 69.25 31.25 69.21 31.38 69.17 31.5 69.13 31.62 69.09 31.74 69.05 31.86 69.01 31.98 68.97 32.1 68.93 32.22 68.89 32.35 68.85 32.47 68.81 32.59 68.77 32.71 68.73 32.83 68.7 32.95 68.66 33.07 68.62 33.19 68.58 33.31 68.54 33.44 68.5 33.56 68.46 33.68 68.42 33.8 68.38 33.92 68.34 34.04 68.3 34.16 68.26 34.28 68.22 34.41 68.19 34.53 68.15 34.65 68.11 34.77 68.07 34.89 68.03 35.01 67.99 35.13 67.95 35.25 67.91 35.38 67.87 35.5 67.83 35.62 67.79 35.74 67.75 35.86 67.71 35.98 67.67 36.1 67.64 36.22 67.6 36.34 67.56 36.47 67.52 36.59 67.48 36.71 67.44 36.83 67.4 36.95 67.36 37.07 67.32 37.19 67.28 37.31 67.24 37.44 67.2 37.56 67.16 37.68 67.12 37.8 67.09 37.92 67.05 38.04 67.01 38.16 66.97 38.28 66.93 38.41 66.89 38.53 66.85 38.65 66.81 38.77 66.77 38.89 66.73 39.01 66.69 39.13 66.65 39.25 66.61 39.37 66.57 39.5 66.54 39.62 66.5 39.74 66.46 39.86 66.42 39.98 66.38 40.1 66.34 40.22 66.3 40.34 66.26 40.47 66.22 40.59 66.18 40.71 66.14 40.83 66.1 40.95 66.06 41.07 66.02 41.19 65.99 41.31 65.95 41.44 65.91 41.56 65.87 41.68 65.83 41.8 65.79 41.92 65.75 42.04 65.71 42.16 65.67 42.28 65.63 42.4 65.59 42.53 65.55 42.65 65.51 42.77 65.47 42.89 65.44 43.01 65.4 43.13 65.36 43.25 65.32 43.37 65.28 43.5 65.24 43.62 65.2 43.74 65.16 43.86 65.12 43.98 65.08 44.1 65.04 44.22 65 44.34 64.96 44.47 64.92 44.59 64.89 44.71 64.85 44.83 64.81 44.95 64.77 45.07 64.73 45.19 64.69 45.31 64.65 45.43 64.61 45.56 64.57 45.68 64.53 45.8 64.49 45.92 64.45 46.04 64.41 46.16 64.37 46.28 64.34 46.4 64.3 46.53 64.26 46.65 64.22 46.77 64.18 46.89 64.14 47.01 64.1 47.13 64.06 47.25 64.02 47.37 63.98 47.5 63.94 47.62 63.9 47.74 63.86 47.86 63.82 47.98 63.79 48.1 63.75 48.22 63.71 48.34 63.67 48.46 63.63 48.59 63.59 48.71 63.55 48.83 63.51 48.95 63.47 49.07 63.43 49.19 63.39 49.31 63.35 49.43 63.31 49.56 63.28 49.68 63.24 49.8 63.2 49.92 63.16 50.04 63.12 50.16 63.08 50.28 63.04 50.4 63 50.53 62.96 50.65 62.92 50.77 62.88 50.89 62.84 51.01 62.8 51.13 62.76 51.25 62.73 51.37 62.69 51.49 62.65 51.62 62.61 51.74 62.57 51.86 62.53 51.98 62.49 52.1 62.45 52.22 62.41 52.34 62.37 52.46 62.33 52.59 62.29 52.71 62.25 52.83 62.21 52.95 62.18 53.07 62.14 53.19 62.1 53.31 62.06 53.43 62.02 53.56 61.98 53.68 61.94 53.8 61.9 53.92 61.86 54.04 61.82 54.16 61.78 54.28 61.74 54.4 61.7 54.52 61.66 54.65 61.63 54.77 61.59 54.89 61.55 55.01 61.51 55.13 61.47 55.25 61.43 55.37 61.39 55.49 61.35 55.62 61.31 55.74 61.27 55.86 61.23 55.98 61.19 56.1 61.15 56.22 61.11 56.34 61.08 56.46 61.04 56.59 61 56.71 60.96 56.83 60.92 56.95 60.88 57.07 60.84 57.19 60.8 57.31 60.76 57.43 60.72 57.55 60.68 57.68 60.64 57.8 60.6 57.92 60.56 58.04 60.53 58.16 60.49 58.28 60.45 58.4 60.41 58.52 60.37 58.65 60.33 58.77 60.29 58.89 60.25 59.01 60.21 59.13 60.17 59.25 60.13 59.37 60.09 59.49 60.05 59.62 60.01 59.74 59.98 59.86 59.94 59.98 59.9 60.1 59.86 60.22 59.82 60.34 59.78 60.46 59.74 60.58 59.7 60.71 59.66 60.83 59.62 60.95 59.58 61.07 59.54 61.19 59.5 61.31 59.46 61.43 59.43 61.55 59.39 61.68 59.35 61.8 59.31 61.92 59.27 62.04 59.23 62.16 59.19 62.28 59.15 62.4 59.11 62.52 59.07 62.65 59.03 62.77 58.99 62.89 58.95 63.01 58.91 63.13 58.88 63.25 58.84 63.37 58.8 63.49 58.76 63.61 58.72 63.74 58.68 63.86 58.64 63.98 58.6 64.1 58.56 64.22 58.52 64.34 58.48 64.46 58.44 64.58 58.4 64.71 58.37 64.83 58.33 64.95 58.29 65.07 58.25 65.19 58.21 65.31 58.17 65.43 58.13 65.55 58.09 65.68 58.05 65.8 58.01 65.92 57.97 66.04 57.93 66.16 57.89 66.28 57.85 66.4 57.82 66.52 57.78 66.64 57.74 66.77 57.7 66.89 57.66 67.01 57.62 67.13 57.58 67.25 57.54 67.37 57.5 67.49 57.46 67.61 57.42 67.74 57.38 67.86 57.34 67.98 57.3 68.1 57.27 68.22 57.23 68.34 57.19 68.46 57.15 68.58 57.11 68.71 57.07 68.83 57.03 68.95 56.99 69.07 56.95 69.19 56.91 69.31 56.87 69.43 56.83 69.55 56.79 69.67 56.75 69.8 56.72 69.92 56.68 70.04 56.64 70.16 56.6 70.28 56.56 70.4 56.52 70.52 56.48 70.64 56.44 70.77 56.4 70.89 56.36 71.01 56.32 71.13 56.28 71.25 56.24 71.37 56.2 71.49 56.17 71.61 56.13 71.74 56.09 71.86 56.05 71.98 56.01 72.1 55.97 72.22 55.93 72.34 55.89 72.46 55.85 72.58 55.81 72.7 55.77 72.83 55.73 72.95 55.69 73.07 55.65 73.19 55.62 73.31 55.58 73.43 55.54 73.55 55.5 73.67 55.46 73.8 55.42 73.92 55.38 74.04 55.34 74.16 55.3 74.28 55.26 74.4 55.22 74.52 55.18 74.64 55.14 74.77 55.1 74.89 55.07 75.01 55.03 75.13 54.99 75.25 54.95 75.37 54.91 75.49 54.87 75.61 54.83 75.73 54.79 75.86 54.75 75.98 54.71 76.1 54.67 76.22 54.63 76.34 54.59 76.46 54.55 76.58 54.52 76.7 54.48 76.83 54.44 76.95 54.4 77.07 54.36 77.19 54.32 77.31 54.28 77.43 54.24 77.55 54.2 77.67 54.16 77.8 54.12 77.92 54.08 78.04 54.04 78.16 54 78.28 53.97 78.4 53.93 78.52 53.89 78.64 53.85 78.76 53.81 78.89 53.77 79.01 53.73 79.13 53.69 79.25 53.65 79.37 53.61 79.49 53.57 79.61 53.53 79.73 53.49 79.86 53.46 79.98 53.42 80.1 53.38 80.22 53.34 80.34 53.3 80.46 53.26 80.58 53.22 80.7 53.18 80.83 53.14 80.95 53.1 81.07 53.06 81.19 53.02 81.31 52.98 81.43 52.94 81.55 52.91 81.67 52.87 81.79 52.83 81.92 52.79 82.04 52.75 82.16 52.71 82.28 52.67 82.4 52.63 82.52 52.59 82.64 52.55 82.76 52.51 82.89 52.47 83.01 52.43 83.13 52.39 83.25 52.36 83.37 52.32 83.49 52.28 83.61 52.24 83.73 52.2 83.86 52.16 83.98 52.12 84.1 52.08 84.22 52.04 84.34 52 84.46 51.96 84.58 51.92 84.7 51.88 84.82 51.84 84.95 51.81 85.07 51.77 85.19 51.73 85.31 51.69 85.43 51.65 85.55 51.61 85.67 51.57 85.79 51.53 85.92 51.49 86.04 51.45 86.16 51.41 86.28 51.37 86.4 51.33 86.52 51.29 86.64 51.26 86.76 51.22 86.89 51.18 87.01 51.14 87.13 51.1 87.25 51.06 87.37 51.02 87.49 50.98 87.61 50.94 87.73 50.9 87.85 50.86 87.98 50.82 88.1 50.78 88.22 50.74 88.34 50.71 88.46 50.67 88.58 50.63 88.7 50.59 88.82 50.55 88.95 50.51 89.07 50.47 89.19 50.43 89.31 50.39 89.43 50.35 89.55 50.31 89.67 50.27 89.79 50.23 89.92 50.19 90.04 50.16 90.16 50.12 90.28 50.08 90.4 50.04 90.52 50 90.64 49.96 90.76 49.92 90.88 49.88 91.01 49.84 91.13 49.8 91.25 49.76 91.37 49.72 91.49 49.68 91.61 49.64 91.73 49.61 91.85 49.57 91.98 49.53 92.1 49.49 92.22 49.45 92.34 49.41 92.46 49.37 92.58 49.33 92.7 49.29 92.82 49.25 92.95 49.21 93.07 49.17 93.19 49.13 93.31 49.09 93.43 49.06 93.55 49.02 93.67 48.98 93.79 48.94 93.91 48.9 94.04 48.86 94.16 48.82 94.28 48.78 94.4 48.74 94.52 48.7 94.64 48.66 94.76 48.62 94.88 48.58 95.01 48.54 95.13 48.51 95.25 48.47 95.37 48.43 95.49 48.39 95.61 48.35 95.73 48.31 95.85 48.27 95.98 48.23 96.1 48.19 96.22 48.15 96.34 48.11 96.46 48.07 96.58 48.03 96.7 48 96.82 47.96 96.94 47.92 97.07 47.88 97.19 47.84 97.31 47.8 97.43 47.76 97.55 47.72 97.67 47.68 97.79 47.64 97.91 47.6 98.04 47.56 98.16 47.52 98.28 47.48 98.4 47.45 98.52 47.41 98.64 47.37 98.76 47.33 98.88 47.29 99.01 47.25 99.13 47.21 99.25 47.17 99.37 47.13 99.49 47.09 99.61 47.05 99.73 47.01 99.85 46.97 99.97 46.93 100.1 46.9 100.22 46.86 100.34 46.82 100.46 46.78 100.58 46.74 100.7 46.7 100.82 46.66 100.94 46.62 101.07 46.58 101.19 46.54 101.31 46.5 101.43 46.46 101.55 46.42 101.67 46.38 101.79 46.35 101.91 46.31 102.04 46.27 102.16 46.23 102.28 46.19 102.4 46.15 102.52 46.11 102.64 46.07 102.76 46.03 102.88 45.99 103 45.95 103.13 45.91 103.25 45.87 103.37 45.83 103.49 45.8 103.61 45.76 103.73 45.72 103.85 45.68 103.97 45.64 104.1 45.6 104.22 45.56 104.34 45.52 104.46 45.48 104.58 45.44 104.7 45.4 104.82 45.36 104.94 45.32 105.07 45.28 105.19 45.25 105.31 45.21 105.43 45.17 105.55 45.13 105.67 45.09 105.79 45.05 105.91 45.01 106.03 44.97 106.16 44.93 106.28 44.89 106.4 44.85 106.52 44.81 106.64 44.77 106.76 44.73 106.88 44.7 107 44.66 107.13 44.62 107.25 44.58 107.37 44.54 107.49 44.5 107.61 44.46 107.73 44.42 107.85 44.38 107.97 44.34 108.1 44.3 108.22 44.26 108.34 44.22 108.46 44.18 108.58 44.15 108.7 44.11 108.82 44.07 108.94 44.03 109.06 43.99" id="fig-537c1b6b97b14241bf9bed3d23fe9d7b-element-35" class="geometry color_versicolor" stroke="#D4CA3A"/>
        <path fill="none" d="M31.27,58.32 L 31.41 58.27 31.55 58.23 31.69 58.18 31.83 58.13 31.96 58.09 32.1 58.04 32.24 57.99 32.38 57.95 32.52 57.9 32.66 57.85 32.8 57.81 32.93 57.76 33.07 57.71 33.21 57.67 33.35 57.62 33.49 57.57 33.63 57.52 33.77 57.48 33.9 57.43 34.04 57.38 34.18 57.34 34.32 57.29 34.46 57.24 34.6 57.2 34.73 57.15 34.87 57.1 35.01 57.06 35.15 57.01 35.29 56.96 35.43 56.92 35.57 56.87 35.7 56.82 35.84 56.78 35.98 56.73 36.12 56.68 36.26 56.64 36.4 56.59 36.54 56.54 36.67 56.5 36.81 56.45 36.95 56.4 37.09 56.36 37.23 56.31 37.37 56.26 37.5 56.21 37.64 56.17 37.78 56.12 37.92 56.07 38.06 56.03 38.2 55.98 38.34 55.93 38.47 55.89 38.61 55.84 38.75 55.79 38.89 55.75 39.03 55.7 39.17 55.65 39.31 55.61 39.44 55.56 39.58 55.51 39.72 55.47 39.86 55.42 40 55.37 40.14 55.33 40.28 55.28 40.41 55.23 40.55 55.19 40.69 55.14 40.83 55.09 40.97 55.05 41.11 55 41.24 54.95 41.38 54.9 41.52 54.86 41.66 54.81 41.8 54.76 41.94 54.72 42.08 54.67 42.21 54.62 42.35 54.58 42.49 54.53 42.63 54.48 42.77 54.44 42.91 54.39 43.05 54.34 43.18 54.3 43.32 54.25 43.46 54.2 43.6 54.16 43.74 54.11 43.88 54.06 44.02 54.02 44.15 53.97 44.29 53.92 44.43 53.88 44.57 53.83 44.71 53.78 44.85 53.74 44.98 53.69 45.12 53.64 45.26 53.59 45.4 53.55 45.54 53.5 45.68 53.45 45.82 53.41 45.95 53.36 46.09 53.31 46.23 53.27 46.37 53.22 46.51 53.17 46.65 53.13 46.79 53.08 46.92 53.03 47.06 52.99 47.2 52.94 47.34 52.89 47.48 52.85 47.62 52.8 47.75 52.75 47.89 52.71 48.03 52.66 48.17 52.61 48.31 52.57 48.45 52.52 48.59 52.47 48.72 52.43 48.86 52.38 49 52.33 49.14 52.28 49.28 52.24 49.42 52.19 49.56 52.14 49.69 52.1 49.83 52.05 49.97 52 50.11 51.96 50.25 51.91 50.39 51.86 50.53 51.82 50.66 51.77 50.8 51.72 50.94 51.68 51.08 51.63 51.22 51.58 51.36 51.54 51.49 51.49 51.63 51.44 51.77 51.4 51.91 51.35 52.05 51.3 52.19 51.26 52.33 51.21 52.46 51.16 52.6 51.12 52.74 51.07 52.88 51.02 53.02 50.97 53.16 50.93 53.3 50.88 53.43 50.83 53.57 50.79 53.71 50.74 53.85 50.69 53.99 50.65 54.13 50.6 54.27 50.55 54.4 50.51 54.54 50.46 54.68 50.41 54.82 50.37 54.96 50.32 55.1 50.27 55.23 50.23 55.37 50.18 55.51 50.13 55.65 50.09 55.79 50.04 55.93 49.99 56.07 49.95 56.2 49.9 56.34 49.85 56.48 49.81 56.62 49.76 56.76 49.71 56.9 49.67 57.04 49.62 57.17 49.57 57.31 49.52 57.45 49.48 57.59 49.43 57.73 49.38 57.87 49.34 58.01 49.29 58.14 49.24 58.28 49.2 58.42 49.15 58.56 49.1 58.7 49.06 58.84 49.01 58.97 48.96 59.11 48.92 59.25 48.87 59.39 48.82 59.53 48.78 59.67 48.73 59.81 48.68 59.94 48.64 60.08 48.59 60.22 48.54 60.36 48.5 60.5 48.45 60.64 48.4 60.78 48.36 60.91 48.31 61.05 48.26 61.19 48.21 61.33 48.17 61.47 48.12 61.61 48.07 61.74 48.03 61.88 47.98 62.02 47.93 62.16 47.89 62.3 47.84 62.44 47.79 62.58 47.75 62.71 47.7 62.85 47.65 62.99 47.61 63.13 47.56 63.27 47.51 63.41 47.47 63.55 47.42 63.68 47.37 63.82 47.33 63.96 47.28 64.1 47.23 64.24 47.19 64.38 47.14 64.52 47.09 64.65 47.05 64.79 47 64.93 46.95 65.07 46.9 65.21 46.86 65.35 46.81 65.48 46.76 65.62 46.72 65.76 46.67 65.9 46.62 66.04 46.58 66.18 46.53 66.32 46.48 66.45 46.44 66.59 46.39 66.73 46.34 66.87 46.3 67.01 46.25 67.15 46.2 67.29 46.16 67.42 46.11 67.56 46.06 67.7 46.02 67.84 45.97 67.98 45.92 68.12 45.88 68.26 45.83 68.39 45.78 68.53 45.74 68.67 45.69 68.81 45.64 68.95 45.59 69.09 45.55 69.22 45.5 69.36 45.45 69.5 45.41 69.64 45.36 69.78 45.31 69.92 45.27 70.06 45.22 70.19 45.17 70.33 45.13 70.47 45.08 70.61 45.03 70.75 44.99 70.89 44.94 71.03 44.89 71.16 44.85 71.3 44.8 71.44 44.75 71.58 44.71 71.72 44.66 71.86 44.61 72 44.57 72.13 44.52 72.27 44.47 72.41 44.43 72.55 44.38 72.69 44.33 72.83 44.28 72.96 44.24 73.1 44.19 73.24 44.14 73.38 44.1 73.52 44.05 73.66 44 73.8 43.96 73.93 43.91 74.07 43.86 74.21 43.82 74.35 43.77 74.49 43.72 74.63 43.68 74.77 43.63 74.9 43.58 75.04 43.54 75.18 43.49 75.32 43.44 75.46 43.4 75.6 43.35 75.73 43.3 75.87 43.26 76.01 43.21 76.15 43.16 76.29 43.12 76.43 43.07 76.57 43.02 76.7 42.98 76.84 42.93 76.98 42.88 77.12 42.83 77.26 42.79 77.4 42.74 77.54 42.69 77.67 42.65 77.81 42.6 77.95 42.55 78.09 42.51 78.23 42.46 78.37 42.41 78.51 42.37 78.64 42.32 78.78 42.27 78.92 42.23 79.06 42.18 79.2 42.13 79.34 42.09 79.47 42.04 79.61 41.99 79.75 41.95 79.89 41.9 80.03 41.85 80.17 41.81 80.31 41.76 80.44 41.71 80.58 41.67 80.72 41.62 80.86 41.57 81 41.52 81.14 41.48 81.28 41.43 81.41 41.38 81.55 41.34 81.69 41.29 81.83 41.24 81.97 41.2 82.11 41.15 82.25 41.1 82.38 41.06 82.52 41.01 82.66 40.96 82.8 40.92 82.94 40.87 83.08 40.82 83.21 40.78 83.35 40.73 83.49 40.68 83.63 40.64 83.77 40.59 83.91 40.54 84.05 40.5 84.18 40.45 84.32 40.4 84.46 40.36 84.6 40.31 84.74 40.26 84.88 40.21 85.02 40.17 85.15 40.12 85.29 40.07 85.43 40.03 85.57 39.98 85.71 39.93 85.85 39.89 85.98 39.84 86.12 39.79 86.26 39.75 86.4 39.7 86.54 39.65 86.68 39.61 86.82 39.56 86.95 39.51 87.09 39.47 87.23 39.42 87.37 39.37 87.51 39.33 87.65 39.28 87.79 39.23 87.92 39.19 88.06 39.14 88.2 39.09 88.34 39.05 88.48 39 88.62 38.95 88.76 38.9 88.89 38.86 89.03 38.81 89.17 38.76 89.31 38.72 89.45 38.67 89.59 38.62 89.72 38.58 89.86 38.53 90 38.48 90.14 38.44 90.28 38.39 90.42 38.34 90.56 38.3 90.69 38.25 90.83 38.2 90.97 38.16 91.11 38.11 91.25 38.06 91.39 38.02 91.53 37.97 91.66 37.92 91.8 37.88 91.94 37.83 92.08 37.78 92.22 37.74 92.36 37.69 92.5 37.64 92.63 37.59 92.77 37.55 92.91 37.5 93.05 37.45 93.19 37.41 93.33 37.36 93.46 37.31 93.6 37.27 93.74 37.22 93.88 37.17 94.02 37.13 94.16 37.08 94.3 37.03 94.43 36.99 94.57 36.94 94.71 36.89 94.85 36.85 94.99 36.8 95.13 36.75 95.27 36.71 95.4 36.66 95.54 36.61 95.68 36.57 95.82 36.52 95.96 36.47 96.1 36.43 96.24 36.38 96.37 36.33 96.51 36.28 96.65 36.24 96.79 36.19 96.93 36.14 97.07 36.1 97.2 36.05 97.34 36 97.48 35.96 97.62 35.91 97.76 35.86 97.9 35.82 98.04 35.77 98.17 35.72 98.31 35.68 98.45 35.63 98.59 35.58 98.73 35.54 98.87 35.49 99.01 35.44 99.14 35.4 99.28 35.35 99.42 35.3 99.56 35.26 99.7 35.21 99.84 35.16 99.97 35.12 100.11 35.07 100.25 35.02 100.39 34.98 100.53 34.93 100.67 34.88 100.81 34.83 100.94 34.79 101.08 34.74 101.22 34.69 101.36 34.65 101.5 34.6 101.64 34.55 101.78 34.51 101.91 34.46 102.05 34.41 102.19 34.37 102.33 34.32 102.47 34.27 102.61 34.23 102.75 34.18 102.88 34.13 103.02 34.09 103.16 34.04 103.3 33.99 103.44 33.95 103.58 33.9 103.71 33.85 103.85 33.81 103.99 33.76 104.13 33.71 104.27 33.67 104.41 33.62 104.55 33.57 104.68 33.52 104.82 33.48 104.96 33.43 105.1 33.38 105.24 33.34 105.38 33.29 105.52 33.24 105.65 33.2 105.79 33.15 105.93 33.1 106.07 33.06 106.21 33.01 106.35 32.96 106.49 32.92 106.62 32.87 106.76 32.82 106.9 32.78 107.04 32.73 107.18 32.68 107.32 32.64 107.45 32.59 107.59 32.54 107.73 32.5 107.87 32.45 108.01 32.4 108.15 32.36 108.29 32.31 108.42 32.26 108.56 32.21 108.7 32.17 108.84 32.12 108.98 32.07 109.12 32.03 109.26 31.98 109.39 31.93 109.53 31.89 109.67 31.84 109.81 31.79 109.95 31.75 110.09 31.7 110.23 31.65 110.36 31.61 110.5 31.56 110.64 31.51 110.78 31.47 110.92 31.42 111.06 31.37 111.19 31.33 111.33 31.28 111.47 31.23 111.61 31.19 111.75 31.14 111.89 31.09 112.03 31.05 112.16 31 112.3 30.95 112.44 30.9 112.58 30.86 112.72 30.81 112.86 30.76 113 30.72 113.13 30.67 113.27 30.62 113.41 30.58 113.55 30.53 113.69 30.48 113.83 30.44 113.96 30.39 114.1 30.34 114.24 30.3 114.38 30.25 114.52 30.2 114.66 30.16 114.8 30.11 114.93 30.06 115.07 30.02 115.21 29.97 115.35 29.92 115.49 29.88 115.63 29.83 115.77 29.78 115.9 29.74 116.04 29.69 116.18 29.64 116.32 29.59 116.46 29.55 116.6 29.5 116.74 29.45 116.87 29.41 117.01 29.36 117.15 29.31 117.29 29.27 117.43 29.22 117.57 29.17 117.7 29.13 117.84 29.08 117.98 29.03 118.12 28.99 118.26 28.94 118.4 28.89 118.54 28.85 118.67 28.8 118.81 28.75 118.95 28.71 119.09 28.66 119.23 28.61 119.37 28.57 119.51 28.52 119.64 28.47 119.78 28.43 119.92 28.38 120.06 28.33 120.2 28.29 120.34 28.24 120.48 28.19 120.61 28.14 120.75 28.1 120.89 28.05 121.03 28 121.17 27.96 121.31 27.91 121.44 27.86 121.58 27.82 121.72 27.77 121.86 27.72 122 27.68 122.14 27.63 122.28 27.58 122.41 27.54 122.55 27.49 122.69 27.44 122.83 27.4 122.97 27.35 123.11 27.3 123.25 27.26 123.38 27.21 123.52 27.16 123.66 27.12 123.8 27.07 123.94 27.02 124.08 26.98 124.21 26.93 124.35 26.88 124.49 26.83 124.63 26.79 124.77 26.74 124.91 26.69 125.05 26.65 125.18 26.6 125.32 26.55 125.46 26.51 125.6 26.46 125.74 26.41 125.88 26.37 126.02 26.32 126.15 26.27 126.29 26.23 126.43 26.18 126.57 26.13 126.71 26.09 126.85 26.04 126.99 25.99 127.12 25.95 127.26 25.9 127.4 25.85 127.54 25.81 127.68 25.76 127.82 25.71 127.95 25.67 128.09 25.62 128.23 25.57 128.37 25.52 128.51 25.48 128.65 25.43 128.79 25.38 128.92 25.34 129.06 25.29 129.2 25.24 129.34 25.2 129.48 25.15 129.62 25.1 129.76 25.06 129.89 25.01 130.03 24.96 130.17 24.92 130.31 24.87 130.45 24.82 130.59 24.78 130.73 24.73 130.86 24.68 131 24.64 131.14 24.59 131.28 24.54 131.42 24.5 131.56 24.45 131.69 24.4 131.83 24.36 131.97 24.31 132.11 24.26 132.25 24.21 132.39 24.17 132.53 24.12 132.66 24.07 132.8 24.03 132.94 23.98 133.08 23.93 133.22 23.89 133.36 23.84 133.5 23.79 133.63 23.75 133.77 23.7 133.91 23.65 134.05 23.61 134.19 23.56 134.33 23.51 134.47 23.47 134.6 23.42 134.74 23.37 134.88 23.33 135.02 23.28" id="fig-537c1b6b97b14241bf9bed3d23fe9d7b-element-36" class="geometry color_virginica" stroke="#FF5EA0"/>
      </g>
      <g class="geometry" id="fig-537c1b6b97b14241bf9bed3d23fe9d7b-element-37">
        <g stroke-width="0.3" id="fig-537c1b6b97b14241bf9bed3d23fe9d7b-element-38">
          <circle cx="37.76" cy="92.14" r="0.9" id="fig-537c1b6b97b14241bf9bed3d23fe9d7b-element-39" fill="#00BFFF" class="color_setosa" stroke="#FFFFFF"/>
          <circle cx="82.29" cy="88.31" r="0.9" id="fig-537c1b6b97b14241bf9bed3d23fe9d7b-element-40" fill="#00BFFF" class="color_setosa" stroke="#FFFFFF"/>
          <circle cx="89.71" cy="84.84" r="0.9" id="fig-537c1b6b97b14241bf9bed3d23fe9d7b-element-41" fill="#00BFFF" class="color_setosa" stroke="#FFFFFF"/>
          <circle cx="96.2" cy="87.76" r="0.9" id="fig-537c1b6b97b14241bf9bed3d23fe9d7b-element-42" fill="#00BFFF" class="color_setosa" stroke="#FFFFFF"/>
          <circle cx="108" cy="79.09" r="0.9" id="fig-537c1b6b97b14241bf9bed3d23fe9d7b-element-43" fill="#00BFFF" class="color_setosa" stroke="#FFFFFF"/>
          <circle cx="117.84" cy="78.89" r="0.9" id="fig-537c1b6b97b14241bf9bed3d23fe9d7b-element-44" fill="#00BFFF" class="color_setosa" stroke="#FFFFFF"/>
          <circle cx="142.15" cy="70.99" r="0.9" id="fig-537c1b6b97b14241bf9bed3d23fe9d7b-element-45" fill="#00BFFF" class="color_setosa" stroke="#FFFFFF"/>
          <circle cx="46.85" cy="57.6" r="0.9" id="fig-537c1b6b97b14241bf9bed3d23fe9d7b-element-46" fill="#FF5EA0" class="color_virginica" stroke="#FFFFFF"/>
          <circle cx="61.57" cy="47.14" r="0.9" id="fig-537c1b6b97b14241bf9bed3d23fe9d7b-element-47" fill="#FF5EA0" class="color_virginica" stroke="#FFFFFF"/>
          <circle cx="70.23" cy="44.1" r="0.9" id="fig-537c1b6b97b14241bf9bed3d23fe9d7b-element-48" fill="#FF5EA0" class="color_virginica" stroke="#FFFFFF"/>
          <circle cx="82.29" cy="37.93" r="0.9" id="fig-537c1b6b97b14241bf9bed3d23fe9d7b-element-49" fill="#FF5EA0" class="color_virginica" stroke="#FFFFFF"/>
          <circle cx="89.71" cy="38.01" r="0.9" id="fig-537c1b6b97b14241bf9bed3d23fe9d7b-element-50" fill="#FF5EA0" class="color_virginica" stroke="#FFFFFF"/>
          <circle cx="96.2" cy="37.16" r="0.9" id="fig-537c1b6b97b14241bf9bed3d23fe9d7b-element-51" fill="#FF5EA0" class="color_virginica" stroke="#FFFFFF"/>
          <circle cx="105.29" cy="44.95" r="0.9" id="fig-537c1b6b97b14241bf9bed3d23fe9d7b-element-52" fill="#FF5EA0" class="color_virginica" stroke="#FFFFFF"/>
          <circle cx="122.17" cy="26.46" r="0.9" id="fig-537c1b6b97b14241bf9bed3d23fe9d7b-element-53" fill="#FF5EA0" class="color_virginica" stroke="#FFFFFF"/>
          <circle cx="135.16" cy="11.86" r="0.9" id="fig-537c1b6b97b14241bf9bed3d23fe9d7b-element-54" fill="#FF5EA0" class="color_virginica" stroke="#FFFFFF"/>
          <circle cx="40.76" cy="66.13" r="0.9" id="fig-537c1b6b97b14241bf9bed3d23fe9d7b-element-55" fill="#D4CA3A" class="color_versicolor" stroke="#FFFFFF"/>
          <circle cx="61.3" cy="63.56" r="0.9" id="fig-537c1b6b97b14241bf9bed3d23fe9d7b-element-56" fill="#D4CA3A" class="color_versicolor" stroke="#FFFFFF"/>
          <circle cx="70.23" cy="52" r="0.9" id="fig-537c1b6b97b14241bf9bed3d23fe9d7b-element-57" fill="#D4CA3A" class="color_versicolor" stroke="#FFFFFF"/>
          <circle cx="80.18" cy="55.33" r="0.9" id="fig-537c1b6b97b14241bf9bed3d23fe9d7b-element-58" fill="#D4CA3A" class="color_versicolor" stroke="#FFFFFF"/>
          <circle cx="89.71" cy="37" r="0.9" id="fig-537c1b6b97b14241bf9bed3d23fe9d7b-element-59" fill="#D4CA3A" class="color_versicolor" stroke="#FFFFFF"/>
          <circle cx="96.2" cy="45.11" r="0.9" id="fig-537c1b6b97b14241bf9bed3d23fe9d7b-element-60" fill="#D4CA3A" class="color_versicolor" stroke="#FFFFFF"/>
          <circle cx="105.94" cy="52" r="0.9" id="fig-537c1b6b97b14241bf9bed3d23fe9d7b-element-61" fill="#D4CA3A" class="color_versicolor" stroke="#FFFFFF"/>
        </g>
      </g>
    </g>
  </g>
  <g class="guide ylabels" font-size="2.82" font-family="'PT Sans Caption','Helvetica Neue','Helvetica',sans-serif" fill="#6C606B" id="fig-537c1b6b97b14241bf9bed3d23fe9d7b-element-62">
    <text x="15.29" y="104.3" text-anchor="end" dy="0.35em" id="fig-537c1b6b97b14241bf9bed3d23fe9d7b-element-63">4</text>
    <text x="15.29" y="79.97" text-anchor="end" dy="0.35em" id="fig-537c1b6b97b14241bf9bed3d23fe9d7b-element-64">5</text>
    <text x="15.29" y="55.65" text-anchor="end" dy="0.35em" id="fig-537c1b6b97b14241bf9bed3d23fe9d7b-element-65">6</text>
    <text x="15.29" y="31.32" text-anchor="end" dy="0.35em" id="fig-537c1b6b97b14241bf9bed3d23fe9d7b-element-66">7</text>
    <text x="15.29" y="7" text-anchor="end" dy="0.35em" id="fig-537c1b6b97b14241bf9bed3d23fe9d7b-element-67">8</text>
  </g>
  <g font-size="3.88" font-family="'PT Sans','Helvetica Neue','Helvetica',sans-serif" fill="#564A55" stroke="#000000" stroke-opacity="0.000" id="fig-537c1b6b97b14241bf9bed3d23fe9d7b-element-68">
    <text x="8.81" y="53.65" text-anchor="middle" dy="0.35em" transform="rotate(-90, 8.81, 55.65)" id="fig-537c1b6b97b14241bf9bed3d23fe9d7b-element-69">SepalLength</text>
  </g>
</g>
<defs>
<clipPath id="fig-537c1b6b97b14241bf9bed3d23fe9d7b-element-16">
  <path d="M16.28,5 L 182.61 5 182.61 106.3 16.28 106.3" />
</clipPath
></defs>
</svg>
