<?xml version="1.0" encoding="UTF-8"?>
<svg xmlns="http://www.w3.org/2000/svg"
     xmlns:xlink="http://www.w3.org/1999/xlink"
     xmlns:gadfly="http://www.gadflyjl.org/ns"
     version="1.2"
     width="203.2mm" height="125.58mm" viewBox="0 0 203.2 125.58"
     stroke="none"
     fill="#000000"
     stroke-width="0.3"
     font-size="3.88"
>
<g class="plotroot xscalable yscalable" id="fig-e61b5fa6c5ee41cab301127ca3ec6ecc-element-1">
  <g font-size="3.88" font-family="'PT Sans','Helvetica Neue','Helvetica',sans-serif" fill="#564A55" stroke="#000000" stroke-opacity="0.000" id="fig-e61b5fa6c5ee41cab301127ca3ec6ecc-element-2">
    <text x="108.42" y="113.97" text-anchor="middle" dy="0.6em">SepalWidth</text>
  </g>
  <g class="guide xlabels" font-size="2.82" font-family="'PT Sans Caption','Helvetica Neue','Helvetica',sans-serif" fill="#6C606B" id="fig-e61b5fa6c5ee41cab301127ca3ec6ecc-element-3">
    <text x="20.63" y="107.3" text-anchor="middle" dy="0.6em">1</text>
    <text x="64.52" y="107.3" text-anchor="middle" dy="0.6em">2</text>
    <text x="108.42" y="107.3" text-anchor="middle" dy="0.6em">3</text>
    <text x="152.31" y="107.3" text-anchor="middle" dy="0.6em">4</text>
    <text x="196.2" y="107.3" text-anchor="middle" dy="0.6em">5</text>
  </g>
  <g clip-path="url(#fig-e61b5fa6c5ee41cab301127ca3ec6ecc-element-5)" id="fig-e61b5fa6c5ee41cab301127ca3ec6ecc-element-4">
    <g pointer-events="visible" opacity="1" fill="#000000" fill-opacity="0.000" stroke="#000000" stroke-opacity="0.000" class="guide background" id="fig-e61b5fa6c5ee41cab301127ca3ec6ecc-element-6">
      <rect x="18.63" y="5" width="179.57" height="101.3"/>
    </g>
    <g class="guide ygridlines xfixed" stroke-dasharray="0.5,0.5" stroke-width="0.2" stroke="#D0D0E0" id="fig-e61b5fa6c5ee41cab301127ca3ec6ecc-element-7">
      <path fill="none" d="M18.63,104.3 L 198.2 104.3"/>
      <path fill="none" d="M18.63,84.84 L 198.2 84.84"/>
      <path fill="none" d="M18.63,65.38 L 198.2 65.38"/>
      <path fill="none" d="M18.63,45.92 L 198.2 45.92"/>
      <path fill="none" d="M18.63,26.46 L 198.2 26.46"/>
      <path fill="none" d="M18.63,7 L 198.2 7"/>
    </g>
    <g class="guide xgridlines yfixed" stroke-dasharray="0.5,0.5" stroke-width="0.2" stroke="#D0D0E0" id="fig-e61b5fa6c5ee41cab301127ca3ec6ecc-element-8">
      <path fill="none" d="M20.63,5 L 20.63 106.3"/>
      <path fill="none" d="M64.52,5 L 64.52 106.3"/>
      <path fill="none" d="M108.42,5 L 108.42 106.3"/>
      <path fill="none" d="M152.31,5 L 152.31 106.3"/>
      <path fill="none" d="M196.2,5 L 196.2 106.3"/>
    </g>
    <g class="plotpanel" id="fig-e61b5fa6c5ee41cab301127ca3ec6ecc-element-9">
      <g stroke-width="0.3" fill="#000000" fill-opacity="0.000" class="geometry" stroke="#00BFFF" id="fig-e61b5fa6c5ee41cab301127ca3ec6ecc-element-10">
        <path fill="none" d="M61.42,87.29 L 61.55 87.21 61.67 87.12 61.79 87.03 61.91 86.94 62.04 86.86 62.16 86.77 62.28 86.68 62.41 86.59 62.53 86.51 62.65 86.42 62.77 86.33 62.9 86.24 63.02 86.16 63.14 86.07 63.27 85.98 63.39 85.89 63.51 85.81 63.64 85.72 63.76 85.63 63.88 85.54 64 85.46 64.13 85.37 64.25 85.28 64.37 85.19 64.5 85.1 64.62 85.02 64.74 84.93 64.86 84.84 64.99 84.75 65.11 84.67 65.23 84.58 65.36 84.49 65.48 84.4 65.6 84.32 65.72 84.23 65.85 84.14 65.97 84.05 66.09 83.97 66.22 83.88 66.34 83.79 66.46 83.7 66.58 83.62 66.71 83.53 66.83 83.44 66.95 83.35 67.08 83.27 67.2 83.18 67.32 83.09 67.44 83 67.57 82.92 67.69 82.83 67.81 82.74 67.94 82.65 68.06 82.57 68.18 82.48 68.31 82.39 68.43 82.3 68.55 82.22 68.67 82.13 68.8 82.04 68.92 81.95 69.04 81.86 69.17 81.78 69.29 81.69 69.41 81.6 69.53 81.51 69.66 81.43 69.78 81.34 69.9 81.25 70.03 81.16 70.15 81.08 70.27 80.99 70.39 80.9 70.52 80.81 70.64 80.73 70.76 80.64 70.89 80.55 71.01 80.46 71.13 80.38 71.25 80.29 71.38 80.2 71.5 80.11 71.62 80.03 71.75 79.94 71.87 79.85 71.99 79.76 72.12 79.68 72.24 79.59 72.36 79.5 72.48 79.41 72.61 79.33 72.73 79.24 72.85 79.15 72.98 79.06 73.1 78.98 73.22 78.89 73.34 78.8 73.47 78.71 73.59 78.62 73.71 78.54 73.84 78.45 73.96 78.36 74.08 78.27 74.2 78.19 74.33 78.1 74.45 78.01 74.57 77.92 74.7 77.84 74.82 77.75 74.94 77.66 75.06 77.57 75.19 77.49 75.31 77.4 75.43 77.31 75.56 77.22 75.68 77.14 75.8 77.05 75.92 76.96 76.05 76.87 76.17 76.79 76.29 76.7 76.42 76.61 76.54 76.52 76.66 76.44 76.79 76.35 76.91 76.26 77.03 76.17 77.15 76.09 77.28 76 77.4 75.91 77.52 75.82 77.65 75.74 77.77 75.65 77.89 75.56 78.01 75.47 78.14 75.38 78.26 75.3 78.38 75.21 78.51 75.12 78.63 75.03 78.75 74.95 78.87 74.86 79 74.77 79.12 74.68 79.24 74.6 79.37 74.51 79.49 74.42 79.61 74.33 79.73 74.25 79.86 74.16 79.98 74.07 80.1 73.98 80.23 73.9 80.35 73.81 80.47 73.72 80.6 73.63 80.72 73.55 80.84 73.46 80.96 73.37 81.09 73.28 81.21 73.2 81.33 73.11 81.46 73.02 81.58 72.93 81.7 72.85 81.82 72.76 81.95 72.67 82.07 72.58 82.19 72.5 82.32 72.41 82.44 72.32 82.56 72.23 82.68 72.14 82.81 72.06 82.93 71.97 83.05 71.88 83.18 71.79 83.3 71.71 83.42 71.62 83.54 71.53 83.67 71.44 83.79 71.36 83.91 71.27 84.04 71.18 84.16 71.09 84.28 71.01 84.4 70.92 84.53 70.83 84.65 70.74 84.77 70.66 84.9 70.57 85.02 70.48 85.14 70.39 85.27 70.31 85.39 70.22 85.51 70.13 85.63 70.04 85.76 69.96 85.88 69.87 86 69.78 86.13 69.69 86.25 69.61 86.37 69.52 86.49 69.43 86.62 69.34 86.74 69.26 86.86 69.17 86.99 69.08 87.11 68.99 87.23 68.9 87.35 68.82 87.48 68.73 87.6 68.64 87.72 68.55 87.85 68.47 87.97 68.38 88.09 68.29 88.21 68.2 88.34 68.12 88.46 68.03 88.58 67.94 88.71 67.85 88.83 67.77 88.95 67.68 89.07 67.59 89.2 67.5 89.32 67.42 89.44 67.33 89.57 67.24 89.69 67.15 89.81 67.07 89.94 66.98 90.06 66.89 90.18 66.8 90.3 66.72 90.43 66.63 90.55 66.54 90.67 66.45 90.8 66.37 90.92 66.28 91.04 66.19 91.16 66.1 91.29 66.02 91.41 65.93 91.53 65.84 91.66 65.75 91.78 65.66 91.9 65.58 92.02 65.49 92.15 65.4 92.27 65.31 92.39 65.23 92.52 65.14 92.64 65.05 92.76 64.96 92.88 64.88 93.01 64.79 93.13 64.7 93.25 64.61 93.38 64.53 93.5 64.44 93.62 64.35 93.75 64.26 93.87 64.18 93.99 64.09 94.11 64 94.24 63.91 94.36 63.83 94.48 63.74 94.61 63.65 94.73 63.56 94.85 63.48 94.97 63.39 95.1 63.3 95.22 63.21 95.34 63.13 95.47 63.04 95.59 62.95 95.71 62.86 95.83 62.77 95.96 62.69 96.08 62.6 96.2 62.51 96.33 62.42 96.45 62.34 96.57 62.25 96.69 62.16 96.82 62.07 96.94 61.99 97.06 61.9 97.19 61.81 97.31 61.72 97.43 61.64 97.55 61.55 97.68 61.46 97.8 61.37 97.92 61.29 98.05 61.2 98.17 61.11 98.29 61.02 98.42 60.94 98.54 60.85 98.66 60.76 98.78 60.67 98.91 60.59 99.03 60.5 99.15 60.41 99.28 60.32 99.4 60.24 99.52 60.15 99.64 60.06 99.77 59.97 99.89 59.89 100.01 59.8 100.14 59.71 100.26 59.62 100.38 59.53 100.5 59.45 100.63 59.36 100.75 59.27 100.87 59.18 101 59.1 101.12 59.01 101.24 58.92 101.36 58.83 101.49 58.75 101.61 58.66 101.73 58.57 101.86 58.48 101.98 58.4 102.1 58.31 102.23 58.22 102.35 58.13 102.47 58.05 102.59 57.96 102.72 57.87 102.84 57.78 102.96 57.7 103.09 57.61 103.21 57.52 103.33 57.43 103.45 57.35 103.58 57.26 103.7 57.17 103.82 57.08 103.95 57 104.07 56.91 104.19 56.82 104.31 56.73 104.44 56.65 104.56 56.56 104.68 56.47 104.81 56.38 104.93 56.29 105.05 56.21 105.17 56.12 105.3 56.03 105.42 55.94 105.54 55.86 105.67 55.77 105.79 55.68 105.91 55.59 106.03 55.51 106.16 55.42 106.28 55.33 106.4 55.24 106.53 55.16 106.65 55.07 106.77 54.98 106.9 54.89 107.02 54.81 107.14 54.72 107.26 54.63 107.39 54.54 107.51 54.46 107.63 54.37 107.76 54.28 107.88 54.19 108 54.11 108.12 54.02 108.25 53.93 108.37 53.84 108.49 53.76 108.62 53.67 108.74 53.58 108.86 53.49 108.98 53.41 109.11 53.32 109.23 53.23 109.35 53.14 109.48 53.05 109.6 52.97 109.72 52.88 109.84 52.79 109.97 52.7 110.09 52.62 110.21 52.53 110.34 52.44 110.46 52.35 110.58 52.27 110.7 52.18 110.83 52.09 110.95 52 111.07 51.92 111.2 51.83 111.32 51.74 111.44 51.65 111.57 51.57 111.69 51.48 111.81 51.39 111.93 51.3 112.06 51.22 112.18 51.13 112.3 51.04 112.43 50.95 112.55 50.87 112.67 50.78 112.79 50.69 112.92 50.6 113.04 50.52 113.16 50.43 113.29 50.34 113.41 50.25 113.53 50.17 113.65 50.08 113.78 49.99 113.9 49.9 114.02 49.81 114.15 49.73 114.27 49.64 114.39 49.55 114.51 49.46 114.64 49.38 114.76 49.29 114.88 49.2 115.01 49.11 115.13 49.03 115.25 48.94 115.38 48.85 115.5 48.76 115.62 48.68 115.74 48.59 115.87 48.5 115.99 48.41 116.11 48.33 116.24 48.24 116.36 48.15 116.48 48.06 116.6 47.98 116.73 47.89 116.85 47.8 116.97 47.71 117.1 47.63 117.22 47.54 117.34 47.45 117.46 47.36 117.59 47.28 117.71 47.19 117.83 47.1 117.96 47.01 118.08 46.93 118.2 46.84 118.32 46.75 118.45 46.66 118.57 46.57 118.69 46.49 118.82 46.4 118.94 46.31 119.06 46.22 119.18 46.14 119.31 46.05 119.43 45.96 119.55 45.87 119.68 45.79 119.8 45.7 119.92 45.61 120.05 45.52 120.17 45.44 120.29 45.35 120.41 45.26 120.54 45.17 120.66 45.09 120.78 45 120.91 44.91 121.03 44.82 121.15 44.74 121.27 44.65 121.4 44.56 121.52 44.47 121.64 44.39 121.77 44.3 121.89 44.21 122.01 44.12 122.13 44.04 122.26 43.95 122.38 43.86 122.5 43.77 122.63 43.69 122.75 43.6 122.87 43.51 122.99 43.42 123.12 43.33 123.24 43.25 123.36 43.16 123.49 43.07 123.61 42.98 123.73 42.9 123.86 42.81 123.98 42.72 124.1 42.63 124.22 42.55 124.35 42.46 124.47 42.37 124.59 42.28 124.72 42.2 124.84 42.11 124.96 42.02 125.08 41.93 125.21 41.85 125.33 41.76 125.45 41.67 125.58 41.58 125.7 41.5 125.82 41.41 125.94 41.32 126.07 41.23 126.19 41.15 126.31 41.06 126.44 40.97 126.56 40.88 126.68 40.8 126.8 40.71 126.93 40.62 127.05 40.53 127.17 40.45 127.3 40.36 127.42 40.27 127.54 40.18 127.66 40.09 127.79 40.01 127.91 39.92 128.03 39.83 128.16 39.74 128.28 39.66 128.4 39.57 128.53 39.48 128.65 39.39 128.77 39.31 128.89 39.22 129.02 39.13 129.14 39.04 129.26 38.96 129.39 38.87 129.51 38.78 129.63 38.69 129.75 38.61 129.88 38.52 130 38.43 130.12 38.34 130.25 38.26 130.37 38.17 130.49 38.08 130.61 37.99 130.74 37.91 130.86 37.82 130.98 37.73 131.11 37.64 131.23 37.56 131.35 37.47 131.47 37.38 131.6 37.29 131.72 37.21 131.84 37.12 131.97 37.03 132.09 36.94 132.21 36.85 132.34 36.77 132.46 36.68 132.58 36.59 132.7 36.5 132.83 36.42 132.95 36.33 133.07 36.24 133.2 36.15 133.32 36.07 133.44 35.98 133.56 35.89 133.69 35.8 133.81 35.72 133.93 35.63 134.06 35.54 134.18 35.45 134.3 35.37 134.42 35.28 134.55 35.19 134.67 35.1 134.79 35.02 134.92 34.93 135.04 34.84 135.16 34.75 135.28 34.67 135.41 34.58 135.53 34.49 135.65 34.4 135.78 34.32 135.9 34.23 136.02 34.14 136.14 34.05 136.27 33.96 136.39 33.88 136.51 33.79 136.64 33.7 136.76 33.61 136.88 33.53 137.01 33.44 137.13 33.35 137.25 33.26 137.37 33.18 137.5 33.09 137.62 33 137.74 32.91 137.87 32.83 137.99 32.74 138.11 32.65 138.23 32.56 138.36 32.48 138.48 32.39 138.6 32.3 138.73 32.21 138.85 32.13 138.97 32.04 139.09 31.95 139.22 31.86 139.34 31.78 139.46 31.69 139.59 31.6 139.71 31.51 139.83 31.43 139.95 31.34 140.08 31.25 140.2 31.16 140.32 31.08 140.45 30.99 140.57 30.9 140.69 30.81 140.81 30.72 140.94 30.64 141.06 30.55 141.18 30.46 141.31 30.37 141.43 30.29 141.55 30.2 141.68 30.11 141.8 30.02 141.92 29.94 142.04 29.85 142.17 29.76 142.29 29.67 142.41 29.59 142.54 29.5 142.66 29.41 142.78 29.32 142.9 29.24 143.03 29.15 143.15 29.06 143.27 28.97 143.4 28.89 143.52 28.8 143.64 28.71 143.76 28.62 143.89 28.54 144.01 28.45 144.13 28.36 144.26 28.27 144.38 28.19 144.5 28.1 144.62 28.01 144.75 27.92 144.87 27.84 144.99 27.75 145.12 27.66 145.24 27.57 145.36 27.48 145.49 27.4 145.61 27.31 145.73 27.22 145.85 27.13 145.98 27.05 146.1 26.96 146.22 26.87 146.35 26.78 146.47 26.7 146.59 26.61 146.71 26.52 146.84 26.43 146.96 26.35 147.08 26.26 147.21 26.17 147.33 26.08 147.45 26 147.57 25.91 147.7 25.82 147.82 25.73 147.94 25.65 148.07 25.56 148.19 25.47 148.31 25.38 148.43 25.3 148.56 25.21 148.68 25.12 148.8 25.03 148.93 24.95 149.05 24.86 149.17 24.77 149.29 24.68 149.42 24.6 149.54 24.51 149.66 24.42 149.79 24.33 149.91 24.24 150.03 24.16 150.16 24.07 150.28 23.98 150.4 23.89 150.52 23.81 150.65 23.72 150.77 23.63 150.89 23.54 151.02 23.46 151.14 23.37 151.26 23.28 151.38 23.19 151.51 23.11 151.63 23.02 151.75 22.93 151.88 22.84 152 22.76 152.12 22.67 152.24 22.58 152.37 22.49 152.49 22.41 152.61 22.32 152.74 22.23 152.86 22.14 152.98 22.06 153.1 21.97 153.23 21.88 153.35 21.79 153.47 21.71"/>
      </g>
      <g class="geometry" id="fig-e61b5fa6c5ee41cab301127ca3ec6ecc-element-11">
        <g class="color_AlphaColorValue{RGB{Float32},Float32}(RGB{Float32}(0.0f0,0.74736935f0,1.0f0),1.0f0)" stroke="#FFFFFF" stroke-width="0.3" fill="#00BFFF" id="fig-e61b5fa6c5ee41cab301127ca3ec6ecc-element-12">
          <circle cx="87.34" cy="68.21" r="0.9"/>
          <circle cx="96.53" cy="64.47" r="0.9"/>
          <circle cx="101.61" cy="60.67" r="0.9"/>
          <circle cx="106.31" cy="57.13" r="0.9"/>
          <circle cx="111.06" cy="48.7" r="0.9"/>
          <circle cx="113.17" cy="45.05" r="0.9"/>
          <circle cx="116.57" cy="46.37" r="0.9"/>
          <circle cx="120.5" cy="50.91" r="0.9"/>
          <circle cx="125.93" cy="42.91" r="0.9"/>
          <circle cx="138.08" cy="30" r="0.9"/>
        </g>
      </g>
    </g>
  </g>
  <g class="guide ylabels" font-size="2.82" font-family="'PT Sans Caption','Helvetica Neue','Helvetica',sans-serif" fill="#6C606B" id="fig-e61b5fa6c5ee41cab301127ca3ec6ecc-element-13">
    <text x="17.63" y="104.3" text-anchor="end" dy="0.35em">4.5</text>
    <text x="17.63" y="84.84" text-anchor="end" dy="0.35em">5.0</text>
    <text x="17.63" y="65.38" text-anchor="end" dy="0.35em">5.5</text>
    <text x="17.63" y="45.92" text-anchor="end" dy="0.35em">6.0</text>
    <text x="17.63" y="26.46" text-anchor="end" dy="0.35em">6.5</text>
    <text x="17.63" y="7" text-anchor="end" dy="0.35em">7.0</text>
  </g>
  <g font-size="3.88" font-family="'PT Sans','Helvetica Neue','Helvetica',sans-serif" fill="#564A55" stroke="#000000" stroke-opacity="0.000" id="fig-e61b5fa6c5ee41cab301127ca3ec6ecc-element-14">
    <text x="8.81" y="53.65" text-anchor="middle" dy="0.35em" transform="rotate(-90, 8.81, 55.65)">SepalLength</text>
  </g>
</g>
<defs>
<clipPath id="fig-e61b5fa6c5ee41cab301127ca3ec6ecc-element-5">
  <path d="M18.63,5 L 198.2 5 198.2 106.3 18.63 106.3" />
</clipPath
></defs>
</svg>
